<?xml version="1.0" encoding="UTF-8"?>
<svg xmlns="http://www.w3.org/2000/svg" xmlns:xlink="http://www.w3.org/1999/xlink" viewBox="0 0 38.44 37.09">
  <defs>
    <style>
      .cls-1 {
        fill: #870c0c;
      }

      .cls-2, .cls-3 {
        fill: #ff9305;
      }

      .cls-4 {
        fill: url(#linear-gradient-5);
      }

      .cls-5 {
        fill: url(#linear-gradient-2);
      }

      .cls-6 {
        fill: #b87418;
      }

      .cls-7 {
        fill: url(#linear-gradient);
      }

      .cls-8 {
        isolation: isolate;
      }

      .cls-9 {
        fill: url(#linear-gradient-3);
      }

      .cls-9, .cls-10, .cls-11, .cls-12, .cls-13 {
        mix-blend-mode: overlay;
      }

      .cls-10 {
        fill: url(#linear-gradient-4);
      }

      .cls-11 {
        fill: url(#linear-gradient-6);
      }

      .cls-14 {
        fill: #fff;
      }

      .cls-15 {
        fill: none;
        stroke: #b56a14;
        stroke-miterlimit: 10;
        stroke-width: .4px;
      }

      .cls-13 {
        opacity: .45;
      }

      .cls-3 {
        opacity: .65;
      }
    </style>
    <linearGradient id="linear-gradient" x1="-175.02" y1="-37.22" x2="-182.57" y2="-20.34" gradientTransform="translate(163.5 -105.56) rotate(-49.9)" gradientUnits="userSpaceOnUse">
      <stop offset=".11" stop-color="#fff15c"/>
      <stop offset=".66" stop-color="#ffcd05"/>
    </linearGradient>
    <linearGradient id="linear-gradient-2" x1="17.25" y1="2.35" x2="36.57" y2="18.61" gradientUnits="userSpaceOnUse">
      <stop offset="0" stop-color="#eb0102"/>
      <stop offset=".03" stop-color="#e60102"/>
      <stop offset=".7" stop-color="#830102"/>
      <stop offset="1" stop-color="#5c0102"/>
    </linearGradient>
    <linearGradient id="linear-gradient-3" x1="-177.06" y1="-41.12" x2="-176.62" y2="-24.98" gradientTransform="translate(163.5 -105.56) rotate(-49.9)" gradientUnits="userSpaceOnUse">
      <stop offset=".21" stop-color="#fff"/>
      <stop offset=".83" stop-color="#fff15c" stop-opacity="0"/>
    </linearGradient>
    <linearGradient id="linear-gradient-4" x1="-173.26" y1="-21.97" x2="-181.85" y2="-31.39" xlink:href="#linear-gradient-3"/>
    <linearGradient id="linear-gradient-5" x1="141" y1="-44.14" x2="172.64" y2="-62.4" gradientTransform="translate(-145.03 -14.34) rotate(33.41)" gradientUnits="userSpaceOnUse">
      <stop offset=".26" stop-color="#ffde7a"/>
      <stop offset=".35" stop-color="#fede7d"/>
      <stop offset=".42" stop-color="#fde087"/>
      <stop offset=".49" stop-color="#fbe397"/>
      <stop offset=".55" stop-color="#f8e7af"/>
      <stop offset=".57" stop-color="#f8e9b8"/>
      <stop offset=".64" stop-color="#f9e6a8"/>
      <stop offset=".77" stop-color="#fce18e"/>
      <stop offset=".88" stop-color="#fede7f"/>
      <stop offset=".98" stop-color="#ffde7a"/>
    </linearGradient>
    <linearGradient id="linear-gradient-6" x1="151.49" y1="-64.33" x2="160.9" y2="-48.57" gradientTransform="translate(-145.03 -14.34) rotate(33.41)" gradientUnits="userSpaceOnUse">
      <stop offset=".21" stop-color="#fff"/>
      <stop offset=".67" stop-color="#fff15c" stop-opacity="0"/>
    </linearGradient>
  </defs>
  <g class="cls-8">
    <g id="Layer_2" data-name="Layer 2">
      <g id="Layer_1-2" data-name="Layer 1">
        <g>
          <g>
            <polygon class="cls-7" points="19.57 .74 26.61 5.14 34.22 1.84 32.21 9.9 37.7 16.12 29.42 16.69 25.2 23.84 22.1 16.14 14 14.33 20.36 9 19.57 .74"/>
            <path class="cls-5" d="M19.57.74l7.04,4.4,7.62-3.3-2.01,8.05,5.49,6.22-8.28.57-4.22,7.15-3.1-7.7-8.1-1.81,6.36-5.33-.78-8.26M34.22,1.84h0M19.57,0c-.13,0-.27.04-.39.11-.24.15-.37.42-.35.7l.75,7.88-6.06,5.08c-.22.18-.31.47-.24.74.07.27.28.49.56.55l7.72,1.72,2.96,7.34c.11.26.35.44.63.46.02,0,.04,0,.06,0,.26,0,.5-.14.64-.36l4.02-6.81,7.89-.55c.28-.02.53-.2.63-.46.11-.26.06-.56-.13-.77l-5.23-5.93,1.91-7.62c.03-.07.04-.15.04-.24,0-.41-.33-.74-.74-.74h0s-.03,0-.04,0c-.09,0-.18.03-.27.07l-7.24,3.14L19.97.11c-.12-.08-.26-.11-.39-.11h0Z"/>
          </g>
          <polygon class="cls-2" points="19.57 .74 26.34 11.69 26.61 5.14 19.57 .74"/>
          <polygon class="cls-2" points="25.2 23.84 26.34 11.69 29.42 16.69 25.2 23.84"/>
          <polygon class="cls-2" points="34.22 1.84 26.34 11.69 32.21 9.9 34.22 1.84"/>
          <polygon class="cls-2" points="14 14.33 26.34 11.69 20.36 9 14 14.33"/>
          <polygon class="cls-3" points="37.7 16.12 26.34 11.69 29.42 16.69 37.7 16.12"/>
          <polygon class="cls-3" points="22.1 16.14 26.34 11.69 14 14.33 22.1 16.14"/>
          <g class="cls-12">
            <path class="cls-14" d="M20.23,1.81l6.08,3.81c.09.06.19.08.29.08.07,0,.15-.02.22-.05l6.58-2.85-1.74,6.96c-.04.18,0,.36.12.5l4.75,5.38-7.16.5c-.18.01-.35.11-.44.27l-3.65,6.18-2.68-6.66c-.07-.17-.22-.29-.39-.33l-7-1.56,5.5-4.61c.14-.12.21-.3.2-.48l-.68-7.14M19.57.74l.78,8.26-6.36,5.33,8.1,1.81,3.1,7.7,4.22-7.15,8.28-.57-5.49-6.22,2.01-8.05-7.62,3.3L19.57.74h0ZM34.22,1.84h0,0Z"/>
          </g>
          <polygon class="cls-9" points="26.18 11.55 20.78 8.99 19.99 1.57 26.18 11.55"/>
          <polygon class="cls-10" points="26.58 11.73 36.69 15.56 31.92 10.12 26.58 11.73"/>
        </g>
        <g>
          <g>
            <path class="cls-4" d="M25,36.7c-6.21,0-15.47-.71-24.35-4.09-.17-.06-.27-.24-.25-.42l1.92-13.79c.02-.12.08-.22.19-.28.06-.04.13-.06.2-.06.04,0,.09,0,.13.02.1.04,10.49,3.76,23.41,3.76,1.85,0,3.69-.08,5.46-.23.01,0,.02,0,.03,0,.09,0,.18.03.26.1.08.07.13.17.13.27l-.78,14.09c-.01.19-.16.35-.35.37-.02,0-2.36.26-6,.26Z"/>
            <path class="cls-1" d="M2.7,18.46s10.4,3.78,23.54,3.78c1.79,0,3.63-.07,5.5-.23v.05s-.78,14-.78,14c0,0-2.3.25-5.96.25-5.88,0-15.26-.65-24.21-4.06l1.57-11.28.35-2.51M2.7,17.68c-.14,0-.28.04-.4.11-.2.12-.34.33-.37.56l-.35,2.51L0,32.14c-.05.36.16.71.5.84,8.93,3.4,18.25,4.11,24.49,4.11,3.66,0,5.95-.25,6.04-.26.38-.04.67-.35.7-.73l.79-14s0-.06,0-.09c-.01-.21-.11-.43-.27-.57-.15-.13-.33-.21-.53-.21-.02,0-.03,0-.05,0-1.76.15-3.59.23-5.43.23-12.86,0-23.17-3.7-23.28-3.73-.09-.03-.18-.05-.27-.05h0Z"/>
          </g>
          <g>
            <path class="cls-15" d="M3.95,22.79l-.98,6.63c-.15,1.01.44,2,1.4,2.34,3.58,1.25,12.57,3.88,23.25,3.16,1.1-.07,1.97-.96,2.02-2.06l.27-6.9c.05-1.23-.94-2.24-2.17-2.23-4.08.05-13-.17-21-2.66-1.27-.39-2.59.41-2.79,1.72Z"/>
            <line class="cls-15" x1="7.37" y1="21.34" x2="5.95" y2="32.25"/>
          </g>
          <g>
            <path class="cls-6" d="M11.94,27.11c.03-.22.06-.45.09-.67-1.03-.17-2.07-.34-3.11-.49-.04.23-.07.47-.11.7.36.05.73.11,1.09.17-.15.96-.25,1.93-.39,2.89.29.04.59.07.88.11.15-.95.27-1.91.4-2.87.38.05.76.11,1.15.18Z"/>
            <path class="cls-6" d="M12.49,26.52c-.15,1.16-.3,2.31-.5,3.46.29.03.58.1.86.17.2-1.15.36-2.31.5-3.47-.29-.06-.57-.11-.86-.17Z"/>
            <path class="cls-6" d="M15.71,30.2c-.71-.21-1.2-.68-1.11-1.45s.7-.96,1.38-.86c.31.05.52.17.78.32.09-.21.17-.43.25-.65-.34-.18-.58-.31-1-.37-1.06-.13-2.12.17-2.3,1.39-.18,1.22.69,1.95,1.77,2.28.39.12.72.1,1.1.06-.02-.23-.04-.45-.06-.67-.26.03-.57.03-.82-.04Z"/>
            <path class="cls-6" d="M20.71,27.75c-.37,0-.72-.01-1.09-.02-.28.33-.8.94-1.03,1.2-.22.27-.13.23-.34.37-.02.01-.01,0-.01,0,.05-.55.11-1.11.16-1.66-.28-.02-.56-.07-.84-.12-.13,1.21-.25,2.41-.39,3.61.29.05.58.08.87.12.04-.38.08-.76.12-1.13.13-.12.27-.24.4-.36.3.54.6,1.07.9,1.6.35.01.7.02,1.05.02-.43-.69-.86-1.38-1.28-2.09.51-.5.99-1.03,1.48-1.55Z"/>
            <path class="cls-6" d="M21.8,30.68c.02-.27.03-.54.05-.82.51-.01,1.02-.03,1.54-.05.02-.23.03-.45.05-.68-.51.02-1.02.03-1.53.04.02-.24.04-.49.06-.73.54,0,1.08-.02,1.63-.04.02-.23.03-.46.05-.69-.83.02-1.65.03-2.48.03-.1,1.21-.2,2.42-.27,3.63.87,0,1.75-.04,2.62-.06,0-.23.02-.46.03-.7-.57.02-1.15.04-1.72.06Z"/>
            <path class="cls-6" d="M26.03,28.39c.38,0,.75.02,1.13.03,0-.23.03-.47.03-.7-1.05-.02-2.1-.03-3.15,0-.01.23-.03.46-.05.69.38,0,.75-.02,1.13-.02-.07.97-.18,1.93-.2,2.9.29,0,.58.01.87.03.02-.98.15-1.95.22-2.93Z"/>
          </g>
          <path class="cls-13" d="M30.95,36.06s-15.64,1.72-30.17-3.81l1.57-11.28c2.97,3.74,7.74,7.67,14.64,7.83,6.15.14,11.15-3.16,14.75-6.74l-.79,14Z"/>
          <g class="cls-12">
            <path class="cls-14" d="M2.9,18.79c1.78.6,11.51,3.7,23.34,3.7,1.77,0,3.53-.07,5.24-.21l-.76,13.55c-.65.06-2.74.23-5.72.23-6.11,0-15.21-.69-23.94-3.98l1.54-11.08.31-2.21M2.7,18.46l-.35,2.51-1.57,11.28c8.96,3.41,18.34,4.06,24.21,4.06,3.66,0,5.96-.25,5.96-.25l.79-14v-.05c-1.87.16-3.71.23-5.5.23-13.14,0-23.54-3.78-23.54-3.78h0Z"/>
          </g>
          <path class="cls-11" d="M1.65,31.79l1.73-12.37s5.96,2.1,14.96,2.94c9,.84,12.53.39,12.53.39l-.48,12.55s-16.55,1.44-28.75-3.51Z"/>
        </g>
      </g>
    </g>
  </g>
</svg>