<?xml version="1.0" encoding="UTF-8"?>
<svg xmlns="http://www.w3.org/2000/svg" xmlns:xlink="http://www.w3.org/1999/xlink" viewBox="0 0 52.75 40.72">
  <defs>
    <style>
      .cls-1, .cls-2 {
        fill: #ff9305;
      }

      .cls-3 {
        fill: url(#linear-gradient-5);
      }

      .cls-4 {
        fill: url(#linear-gradient-6);
      }

      .cls-5 {
        fill: url(#linear-gradient-2);
      }

      .cls-6 {
        fill: url(#linear-gradient);
      }

      .cls-7 {
        isolation: isolate;
      }

      .cls-8 {
        fill: url(#linear-gradient-8);
      }

      .cls-8, .cls-9, .cls-10, .cls-11, .cls-12 {
        mix-blend-mode: overlay;
      }

      .cls-9 {
        fill: url(#linear-gradient-3);
      }

      .cls-10 {
        fill: url(#linear-gradient-4);
      }

      .cls-11 {
        fill: url(#linear-gradient-7);
      }

      .cls-13 {
        fill: #fff;
      }

      .cls-2 {
        opacity: .65;
      }
    </style>
    <linearGradient id="linear-gradient" x1="22.23" y1="8.27" x2="10.06" y2="35.48" gradientUnits="userSpaceOnUse">
      <stop offset=".11" stop-color="#fff15c"/>
      <stop offset=".66" stop-color="#ffcd05"/>
    </linearGradient>
    <linearGradient id="linear-gradient-2" x1="19.44" y1="0" x2="19.44" y2="40.72" gradientUnits="userSpaceOnUse">
      <stop offset="0" stop-color="#eb0102"/>
      <stop offset=".03" stop-color="#e60102"/>
      <stop offset=".7" stop-color="#830102"/>
      <stop offset="1" stop-color="#5c0102"/>
    </linearGradient>
    <linearGradient id="linear-gradient-3" x1="18.94" y1="1.98" x2="19.65" y2="28.01" gradientUnits="userSpaceOnUse">
      <stop offset=".21" stop-color="#fff"/>
      <stop offset=".83" stop-color="#fff15c" stop-opacity="0"/>
    </linearGradient>
    <linearGradient id="linear-gradient-4" x1="25.06" y1="32.85" x2="11.21" y2="17.67" xlink:href="#linear-gradient-3"/>
    <linearGradient id="linear-gradient-5" x1="186.02" y1="-29.61" x2="181.58" y2="-19.68" gradientTransform="translate(-129.45 -36.61) rotate(27.88)" xlink:href="#linear-gradient"/>
    <linearGradient id="linear-gradient-6" x1="49.61" y1="20.57" x2="42.13" y2="34.7" xlink:href="#linear-gradient-2"/>
    <linearGradient id="linear-gradient-7" x1="184.82" y1="-31.9" x2="185.08" y2="-22.41" gradientTransform="translate(-129.45 -36.61) rotate(27.88)" xlink:href="#linear-gradient-3"/>
    <linearGradient id="linear-gradient-8" x1="187.06" y1="-20.64" x2="182" y2="-26.18" gradientTransform="translate(-129.45 -36.61) rotate(27.88)" xlink:href="#linear-gradient-3"/>
  </defs>
  <g class="cls-7">
    <g id="Layer_2" data-name="Layer 2">
      <g id="Layer_1-2" data-name="Layer 1">
        <g>
          <g>
            <polygon class="cls-6" points="23.83 1.19 25.71 14.44 37.69 20.41 25.67 26.29 23.7 39.52 14.39 29.91 1.19 32.12 7.46 20.3 1.28 8.43 14.46 10.74 23.83 1.19"/>
            <path class="cls-5" d="M23.83,1.19l1.88,13.25,11.98,5.97-12.02,5.88-1.97,13.24-9.31-9.62-13.2,2.21,6.27-11.82L1.28,8.43l13.18,2.31L23.83,1.19M23.83,0c-.31,0-.62.12-.85.36l-8.94,9.1L1.48,7.26c-.07-.01-.14-.02-.21-.02-.38,0-.73.18-.96.49-.27.37-.3.85-.1,1.26l5.9,11.31L.14,31.56c-.21.4-.18.89.09,1.26.23.31.59.49.97.49.07,0,.13,0,.2-.02l12.58-2.11,8.87,9.17c.23.24.54.36.86.36.12,0,.24-.02.36-.06.43-.14.75-.51.81-.96l1.88-12.62,11.46-5.6c.41-.2.67-.61.67-1.07,0-.45-.25-.87-.66-1.07l-11.42-5.69-1.79-12.63c-.06-.45-.38-.82-.81-.97-.12-.04-.25-.06-.37-.06h0Z"/>
          </g>
          <polygon class="cls-1" points="23.83 1.19 17.35 20.91 25.71 14.44 23.83 1.19"/>
          <polygon class="cls-1" points="1.19 32.12 17.35 20.91 14.39 29.91 1.19 32.12"/>
          <polygon class="cls-1" points="37.69 20.41 17.35 20.91 25.67 26.29 37.69 20.41"/>
          <polygon class="cls-1" points="1.28 8.43 17.35 20.91 14.46 10.74 1.28 8.43"/>
          <polygon class="cls-2" points="23.7 39.52 17.35 20.91 14.39 29.91 23.7 39.52"/>
          <polygon class="cls-2" points="7.46 20.3 17.35 20.91 1.28 8.43 7.46 20.3"/>
          <g class="cls-12">
            <path class="cls-13" d="M23.2,3.11l1.62,11.46c.04.29.22.54.49.67l10.36,5.16-10.39,5.08c-.26.13-.45.38-.49.67l-1.7,11.44-8.05-8.31c-.17-.18-.4-.27-.64-.27-.05,0-.1,0-.15.01l-11.41,1.92,5.42-10.22c.14-.26.14-.57,0-.83L2.91,9.63l11.4,2c.05,0,.1.01.15.01.24,0,.47-.09.64-.27L23.2,3.11M23.83,1.19l-9.38,9.55L1.28,8.43l6.18,11.87-6.27,11.82,13.2-2.21,9.31,9.62,1.97-13.24,12.02-5.88-11.98-5.97-1.88-13.25h0Z"/>
          </g>
          <polygon class="cls-9" points="17.36 20.57 14.91 11.25 23.24 2.57 17.36 20.57"/>
          <polygon class="cls-10" points="17.55 21.25 23.34 37.69 25.09 26.16 17.55 21.25"/>
        </g>
        <g>
          <g>
            <polygon class="cls-3" points="50.55 22.2 48.9 26.8 51.75 30.77 46.86 30.61 43.97 34.54 42.61 29.85 37.97 28.31 42.01 25.57 42.04 20.69 45.9 23.68 50.55 22.2"/>
            <path class="cls-4" d="M42.04,20.69l3.86,3,4.65-1.48-1.66,4.6,2.85,3.97-4.88-.16-2.9,3.93-1.36-4.69-4.64-1.54,4.04-2.74.03-4.88M42.04,19.69c-.15,0-.3.03-.44.1-.34.17-.56.51-.56.89l-.03,4.36-3.61,2.45c-.31.21-.48.59-.43.96s.31.69.68.81l4.14,1.37,1.21,4.19c.11.37.41.64.79.71.06.01.12.02.18.02.31,0,.61-.15.81-.41l2.58-3.51,4.36.14s.02,0,.03,0c.37,0,.71-.2.88-.53.18-.34.15-.74-.07-1.05l-2.54-3.54,1.48-4.1c.13-.36.04-.76-.22-1.03-.19-.2-.45-.31-.72-.31-.1,0-.2.02-.3.05l-4.15,1.32-3.44-2.67c-.18-.14-.4-.21-.61-.21h0Z"/>
          </g>
          <polygon class="cls-1" points="50.55 22.2 45.1 27.46 48.9 26.8 50.55 22.2"/>
          <polygon class="cls-1" points="37.97 28.31 45.1 27.46 42.61 29.85 37.97 28.31"/>
          <polygon class="cls-1" points="51.75 30.77 45.1 27.46 46.86 30.61 51.75 30.77"/>
          <polygon class="cls-1" points="42.04 20.69 45.1 27.46 45.9 23.68 42.04 20.69"/>
          <polygon class="cls-2" points="43.97 34.54 45.1 27.46 42.61 29.85 43.97 34.54"/>
          <polygon class="cls-2" points="42.01 25.57 45.1 27.46 42.04 20.69 42.01 25.57"/>
          <g class="cls-12">
            <path class="cls-13" d="M42.36,21.35l3.34,2.59c.06.05.13.07.2.07.03,0,.07,0,.1-.02l4.02-1.28-1.43,3.97c-.04.1-.02.21.04.3l2.46,3.43-4.22-.13s0,0-.01,0c-.1,0-.2.05-.26.13l-2.5,3.4-1.18-4.06c-.03-.1-.11-.18-.21-.22l-4.01-1.33,3.49-2.37c.09-.06.14-.16.14-.27l.03-4.22M42.04,20.69l-.03,4.88-4.04,2.74,4.64,1.54,1.36,4.69,2.9-3.93,4.88.16-2.85-3.97,1.66-4.6-4.65,1.48-3.86-3h0Z"/>
          </g>
          <polygon class="cls-11" points="45.16 27.35 45.96 23.92 50.13 22.54 45.16 27.35"/>
          <polygon class="cls-8" points="45.11 27.6 44.17 33.89 46.7 30.47 45.11 27.6"/>
        </g>
      </g>
    </g>
  </g>
</svg>