<?xml version="1.0" encoding="UTF-8"?>
<svg xmlns="http://www.w3.org/2000/svg" xmlns:xlink="http://www.w3.org/1999/xlink" viewBox="0 0 90.08 41.15">
  <defs>
    <style>
      .cls-1 {
        fill: #870c0c;
      }

      .cls-2 {
        fill: #09070a;
      }

      .cls-3 {
        fill: url(#linear-gradient-7);
      }

      .cls-4 {
        fill: url(#linear-gradient-3);
      }

      .cls-5 {
        fill: url(#linear-gradient-2);
      }

      .cls-6 {
        fill: #231b29;
      }

      .cls-7 {
        stroke: #fff;
      }

      .cls-7, .cls-8 {
        fill: none;
        stroke-miterlimit: 10;
      }

      .cls-9 {
        fill: #b87418;
      }

      .cls-10, .cls-11, .cls-12, .cls-13, .cls-14, .cls-15, .cls-16, .cls-17, .cls-18, .cls-19, .cls-20 {
        mix-blend-mode: overlay;
      }

      .cls-10, .cls-21 {
        fill: #fff;
      }

      .cls-22 {
        fill: url(#linear-gradient);
      }

      .cls-23 {
        isolation: isolate;
      }

      .cls-11 {
        fill: url(#linear-gradient-8);
      }

      .cls-12 {
        fill: url(#linear-gradient-4);
      }

      .cls-13 {
        fill: url(#linear-gradient-6);
      }

      .cls-14 {
        fill: url(#linear-gradient-5);
      }

      .cls-8 {
        stroke: #b56a14;
        stroke-width: .28px;
      }

      .cls-16 {
        fill: #1e1e1e;
      }

      .cls-17 {
        opacity: .51;
      }

      .cls-18 {
        opacity: .58;
      }

      .cls-19 {
        opacity: .45;
      }

      .cls-20 {
        opacity: .39;
      }

      .cls-24 {
        fill: #16111a;
      }

      .cls-25 {
        fill: #97919c;
      }
    </style>
    <linearGradient id="linear-gradient" x1="16.61" y1="20.47" x2="37.16" y2="20.47" gradientUnits="userSpaceOnUse">
      <stop offset=".11" stop-color="#31293c"/>
      <stop offset="1" stop-color="#35293d"/>
    </linearGradient>
    <linearGradient id="linear-gradient-2" x1="28.45" y1="12.72" x2="26.12" y2="24.28" gradientUnits="userSpaceOnUse">
      <stop offset=".02" stop-color="#473b57"/>
      <stop offset=".2" stop-color="#453955" stop-opacity=".92"/>
      <stop offset=".45" stop-color="#41354f" stop-opacity=".71"/>
      <stop offset=".74" stop-color="#3b2f46" stop-opacity=".36"/>
      <stop offset="1" stop-color="#35293d" stop-opacity="0"/>
    </linearGradient>
    <linearGradient id="linear-gradient-3" x1="112.11" y1="52.38" x2="91.62" y2="86.3" gradientTransform="translate(-51.1 -76.35) rotate(11.81)" gradientUnits="userSpaceOnUse">
      <stop offset=".11" stop-color="#c8cbcd"/>
      <stop offset=".25" stop-color="#ced1d3"/>
      <stop offset=".44" stop-color="#e0e4e6"/>
      <stop offset=".52" stop-color="#eaeef0"/>
      <stop offset=".63" stop-color="#e4e7e9"/>
      <stop offset=".78" stop-color="#d3d5d6"/>
      <stop offset=".96" stop-color="#b7b8b8"/>
      <stop offset="1" stop-color="#b0b0b0"/>
    </linearGradient>
    <linearGradient id="linear-gradient-4" x1="24.31" y1="28.68" x2="28.39" y2="56.63" gradientUnits="userSpaceOnUse">
      <stop offset="0" stop-color="#fff"/>
      <stop offset=".83" stop-color="#fff" stop-opacity="0"/>
    </linearGradient>
    <linearGradient id="linear-gradient-5" x1="24.76" y1="29.99" x2="28.35" y2="54.6" xlink:href="#linear-gradient-4"/>
    <linearGradient id="linear-gradient-6" x1="52.22" y1="25.35" x2="56.48" y2="54.48" xlink:href="#linear-gradient-4"/>
    <linearGradient id="linear-gradient-7" x1="14.69" y1="-23.56" x2="37.18" y2="-36.53" gradientTransform="translate(56.26 64.85) rotate(-9.16)" gradientUnits="userSpaceOnUse">
      <stop offset=".26" stop-color="#ffde7a"/>
      <stop offset=".35" stop-color="#fede7d"/>
      <stop offset=".42" stop-color="#fde087"/>
      <stop offset=".49" stop-color="#fbe397"/>
      <stop offset=".55" stop-color="#f8e7af"/>
      <stop offset=".57" stop-color="#f8e9b8"/>
      <stop offset=".64" stop-color="#f9e6a8"/>
      <stop offset=".77" stop-color="#fce18e"/>
      <stop offset=".88" stop-color="#fede7f"/>
      <stop offset=".98" stop-color="#ffde7a"/>
    </linearGradient>
    <linearGradient id="linear-gradient-8" x1="22.2" y1="-37.83" x2="28.81" y2="-26.74" gradientTransform="translate(56.26 64.85) rotate(-9.16)" gradientUnits="userSpaceOnUse">
      <stop offset=".21" stop-color="#fff"/>
      <stop offset=".67" stop-color="#fff15c" stop-opacity="0"/>
    </linearGradient>
  </defs>
  <g class="cls-23">
    <g id="Layer_2" data-name="Layer 2">
      <g id="Layer_1-2" data-name="Layer 1">
        <g>
          <g>
            <g>
              <path class="cls-6" d="M9.19,30.39s-.08,0-.12-.03c-2.11-1.11-5.94-3.68-7.92-8.47-.04-.09-.02-.19.04-.26,2.65-3.09,8.27-5.66,16.7-7.62.11-.03.22-.04.33-.04.68,0,1.28.48,1.42,1.14l1.42,6.44c.17.77-.31,1.54-1.07,1.72-4.41,1.07-8.99,2.71-10.89,3.92-.25.16-.42.45-.44.76-.08,1.15.15,1.54.25,1.65.06.07.18.18.4.32.12.07.16.22.09.34-.05.08-.13.13-.22.13Z"/>
              <path class="cls-2" d="M18.22,14.22c.55,0,1.05.39,1.18.95l1.42,6.44c.14.64-.25,1.27-.88,1.43-4.49,1.09-9.06,2.75-10.96,3.95-.33.21-.53.57-.55.96-.06.89.05,1.54.31,1.83.08.09.22.22.46.36-2.07-1.09-5.86-3.64-7.81-8.35,2.62-3.06,8.16-5.58,16.57-7.54.09-.02.18-.03.27-.03M18.22,13.72c-.13,0-.26.01-.39.04-8.48,1.98-14.14,4.57-16.83,7.71-.12.14-.15.34-.08.52,2.01,4.86,5.9,7.47,8.04,8.6.07.04.15.06.23.06.17,0,.34-.09.44-.25.13-.24.05-.53-.18-.67-.21-.12-.31-.22-.35-.27-.03-.03-.26-.33-.18-1.47.02-.24.14-.45.32-.57,1.89-1.19,6.43-2.82,10.82-3.88.89-.22,1.45-1.12,1.25-2.02l-1.42-6.44c-.17-.78-.87-1.34-1.67-1.34h0Z"/>
            </g>
            <path class="cls-21" d="M20.81,21.6l-1.42-6.44c-.12-.56-.62-.95-1.18-.95-.09,0-.18.01-.27.03-8.4,1.96-13.95,4.49-16.57,7.54.11.27.25.51.37.77.17-.21.34-.42.51-.61,0,0,0,0,0-.01.09-.1.19-.19.29-.29.04-.04.09-.09.13-.13,0,0,.01,0,.01,0,2.76-2.59,7.94-4.79,15.43-6.53.03,0,.07-.01.1-.01.21,0,.4.15.44.36l1.42,6.44c.05.24-.09.48-.33.54-4.5,1.09-9.2,2.79-11.19,4.04-.52.33-.86.91-.9,1.55,0,.15-.02.29-.02.43l.11.96c.52.34,1.02.63,1.43.85-.24-.15-.38-.27-.46-.36-.26-.3-.37-.94-.31-1.83.03-.39.22-.75.55-.96,1.91-1.2,6.48-2.86,10.96-3.95.63-.15,1.02-.79.88-1.43Z"/>
            <line class="cls-7" x1="13.3" y1="15.82" x2="15.86" y2="23.32"/>
            <line class="cls-7" x1="3.57" y1="20.16" x2="8.23" y2="27.82"/>
            <g class="cls-17">
              <path d="M9.19,30.14c-.24-.15-.38-.27-.46-.36-.26-.3-.37-.94-.31-1.83.03-.39.22-.75.55-.96,1.91-1.2,6.48-2.86,10.96-3.95.63-.15,1.02-.79.88-1.43l-1.42-6.44c-.14-.65-.8-1.07-1.45-.92-8.4,1.96-13.95,4.49-16.57,7.54,1.95,4.71,5.74,7.26,7.81,8.35Z"/>
            </g>
          </g>
          <g>
            <g>
              <g>
                <path class="cls-22" d="M26.91,30.74c-.71,0-1.42-.07-2.12-.22-2.69-.56-4.99-2.13-6.5-4.43-1.5-2.3-2.02-5.04-1.46-7.72.11-.55.27-1.09.47-1.61,1.52-3.92,5.36-6.56,9.57-6.56.71,0,1.42.07,2.12.22,3.34.7,6.11,3,7.39,6.15.79,1.89.98,3.97.57,6-.99,4.73-5.22,8.17-10.04,8.17Z"/>
                <path class="cls-24" d="M26.87,10.68c.67,0,1.34.07,2.02.21,3.3.69,5.86,2.96,7.04,5.86.73,1.75.95,3.73.54,5.72-.97,4.61-5.03,7.78-9.56,7.78-.67,0-1.34-.07-2.02-.21-5.29-1.1-8.69-6.29-7.58-11.58.11-.53.26-1.04.45-1.53,1.46-3.77,5.1-6.25,9.11-6.25M26.87,9.71h0c-4.4,0-8.43,2.76-10.02,6.87-.21.54-.37,1.1-.5,1.68-.59,2.81-.05,5.68,1.53,8.09,1.58,2.41,3.99,4.06,6.81,4.64.73.15,1.48.23,2.22.23,5.05,0,9.47-3.6,10.51-8.55.44-2.13.23-4.31-.59-6.3-1.34-3.3-4.24-5.71-7.74-6.44-.73-.15-1.48-.23-2.22-.23h0Z"/>
              </g>
              <path class="cls-20" d="M36.47,22.47c-1.11,5.29-6.29,8.68-11.58,7.57-5.29-1.1-8.69-6.29-7.58-11.58.11-.53.26-1.04.45-1.53,2.13,1.04,4.61,1.73,7.49,1.87,4.54.22,8.02-.67,10.68-2.05.73,1.75.95,3.73.54,5.72Z"/>
              <path class="cls-24" d="M26.88,12.07c.57,0,1.15.06,1.73.18,4.54.95,7.44,5.39,6.49,9.93-.83,3.96-4.32,6.67-8.2,6.67-.57,0-1.15-.06-1.73-.18-4.54-.95-7.44-5.39-6.49-9.93.83-3.96,4.32-6.67,8.2-6.67M26.88,11.82h0c-4.07,0-7.62,2.89-8.46,6.88-.47,2.26-.04,4.57,1.23,6.5,1.26,1.93,3.21,3.26,5.47,3.73.59.12,1.18.18,1.78.18,4.07,0,7.62-2.89,8.46-6.88.47-2.26.04-4.57-1.23-6.5-1.26-1.93-3.21-3.26-5.47-3.73-.59-.12-1.18-.18-1.78-.18h0Z"/>
              <circle class="cls-5" cx="26.89" cy="20.47" r="7.83"/>
            </g>
            <g>
              <g>
                <path class="cls-4" d="M26.86,40.45c-9.95,0-18.45-7.45-19.78-17.32-.16-1.23-.21-2.48-.15-3.71C7.42,9.84,14.69,1.95,24.22.67c.89-.12,1.79-.18,2.68-.18,6.6,0,12.77,3.27,16.5,8.74,1.75,2.56,2.86,5.45,3.28,8.58,1.46,10.92-6.23,20.99-17.14,22.46-.89.12-1.8.18-2.69.18ZM31.35,25.39c-2.19,0-4.09,1.56-4.52,3.71-.48,2.48,1.15,4.9,3.63,5.4.29.06.59.09.89.09,2.18,0,4.08-1.56,4.5-3.71.48-2.49-1.14-4.91-3.63-5.41-.29-.06-.59-.08-.88-.08ZM18.98,22.81c-2.19,0-4.08,1.56-4.51,3.71-.24,1.2,0,2.43.69,3.45.68,1.02,1.72,1.71,2.93,1.95.3.06.6.09.9.09,2.19,0,4.08-1.56,4.5-3.71.49-2.49-1.13-4.91-3.62-5.41-.29-.06-.59-.08-.88-.08ZM37.6,15.48c-1.92,0-3.64,1.2-4.3,2.99-.09.23-.16.46-.22.73-.49,2.48,1.13,4.9,3.62,5.39.29.06.59.08.89.08,2.19,0,4.09-1.56,4.51-3.71.49-2.48-1.13-4.9-3.62-5.4-.2-.04-.4-.06-.6-.08-.09,0-.19,0-.29,0ZM26.87,18.86c-.08,0-.16,0-.24.02-.95.12-1.62.99-1.49,1.95,0,.08.03.14.04.2.2.76.89,1.29,1.68,1.29.08,0,.16,0,.24-.02.46-.06.87-.3,1.15-.66s.4-.82.34-1.28c-.01-.1-.03-.18-.06-.26-.22-.74-.9-1.24-1.65-1.24ZM17.23,11.22c-2.19,0-4.09,1.56-4.52,3.72-.48,2.48,1.15,4.9,3.63,5.4.29.06.59.08.88.08,2.19,0,4.09-1.56,4.52-3.72.48-2.48-1.15-4.9-3.63-5.4-.29-.06-.59-.08-.88-.08ZM28.94,6.02c-2.19,0-4.08,1.56-4.49,3.71-.24,1.21,0,2.44.69,3.46.68,1.02,1.72,1.71,2.93,1.94.3.06.6.09.9.09,2.18,0,4.07-1.56,4.5-3.71.24-1.21,0-2.43-.69-3.45-.68-1.02-1.72-1.71-2.93-1.94-.3-.06-.6-.09-.9-.09Z"/>
                <path class="cls-24" d="M26.9.97c6.56,0,12.54,3.31,16.1,8.52,1.66,2.42,2.78,5.26,3.2,8.37,1.43,10.67-6.05,20.48-16.72,21.91-.88.12-1.76.18-2.62.18-9.61,0-17.98-7.11-19.3-16.9-.16-1.22-.21-2.42-.14-3.62C7.89,10.25,14.84,2.42,24.29,1.15c.88-.12,1.75-.18,2.62-.18M28.96,15.7c2.38,0,4.5-1.69,4.98-4.1.55-2.76-1.25-5.43-4-5.97-.33-.07-.67-.1-.99-.1-2.38,0-4.5,1.68-4.97,4.1-.55,2.76,1.24,5.43,4,5.97.33.07.66.1.99.1M17.23,20.91c2.38,0,4.51-1.68,4.99-4.11.53-2.75-1.26-5.42-4.01-5.97-.33-.06-.65-.09-.97-.09-2.38,0-4.51,1.68-4.99,4.11-.53,2.75,1.26,5.42,4.01,5.97.33.06.65.09.97.09M37.59,25.16c2.39,0,4.52-1.68,4.99-4.11.54-2.75-1.25-5.42-4-5.97-.22-.05-.43-.07-.66-.09-.11,0-.21-.01-.32-.01-2.11,0-4.02,1.31-4.75,3.31-.1.25-.18.52-.24.8-.54,2.75,1.26,5.42,4,5.97.33.06.66.09.98.09M26.86,22.81c.1,0,.2,0,.3-.02,1.22-.16,2.06-1.27,1.9-2.49-.01-.13-.04-.24-.08-.35-.28-.93-1.14-1.57-2.11-1.57-.1,0-.2,0-.3.02-1.22.15-2.06,1.27-1.91,2.49.01.09.03.18.06.27.25.97,1.14,1.66,2.15,1.66M18.99,32.49c2.38,0,4.51-1.68,4.98-4.1.55-2.76-1.24-5.43-4-5.98-.33-.06-.66-.09-.98-.09-2.38,0-4.51,1.68-4.99,4.11-.55,2.76,1.26,5.42,4,5.97.33.07.66.1.99.1M31.35,35.08c2.37,0,4.5-1.68,4.98-4.1.54-2.76-1.25-5.43-4.01-5.98-.33-.06-.65-.09-.97-.09-2.38,0-4.51,1.68-4.99,4.11-.54,2.76,1.26,5.42,4.01,5.97.33.07.66.1.98.1M26.9,0c-.91,0-1.84.06-2.75.18C14.39,1.5,6.94,9.58,6.45,19.4c-.07,1.26-.02,2.54.15,3.79,1.36,10.12,10.07,17.74,20.26,17.74.91,0,1.84-.06,2.75-.19,11.17-1.5,19.05-11.82,17.56-23.01-.44-3.21-1.57-6.17-3.37-8.79C39.98,3.35,33.66,0,26.9,0h0ZM28.96,14.72c-.27,0-.54-.03-.8-.08-1.08-.21-2.01-.83-2.62-1.73-.61-.91-.83-2.01-.62-3.09.37-1.92,2.06-3.32,4.02-3.32.27,0,.54.03.8.08,1.08.21,2.01.83,2.62,1.74.61.91.83,2.01.62,3.09-.38,1.92-2.07,3.32-4.02,3.32h0ZM17.23,19.93c-.26,0-.53-.03-.79-.08-2.22-.44-3.67-2.6-3.24-4.83.38-1.92,2.08-3.32,4.04-3.32.26,0,.53.03.79.08,2.22.44,3.67,2.6,3.24,4.83-.38,1.92-2.08,3.32-4.04,3.32h0ZM37.59,24.19c-.26,0-.53-.03-.79-.08-2.22-.44-3.67-2.6-3.23-4.82.05-.23.11-.44.18-.62.6-1.63,2.14-2.71,3.85-2.71.09,0,.17,0,.26,0,.2.01.37.04.52.07,2.23.44,3.69,2.61,3.25,4.82-.37,1.93-2.07,3.32-4.03,3.32h0ZM26.86,21.83c-.57,0-1.06-.38-1.2-.93-.01-.05-.03-.09-.03-.14-.09-.7.39-1.33,1.07-1.41.07,0,.13-.01.18-.01.54,0,1.02.36,1.18.87.03.08.04.13.04.19.05.35-.04.68-.24.94-.2.26-.49.43-.82.48-.06,0-.12.01-.17.01h0ZM18.99,31.52c-.27,0-.54-.03-.8-.08-1.08-.21-2.01-.83-2.62-1.74-.61-.91-.83-2-.62-3.08.38-1.93,2.08-3.32,4.03-3.32.26,0,.53.03.79.08,2.22.44,3.67,2.61,3.23,4.83-.37,1.92-2.06,3.32-4.02,3.32h0ZM31.35,34.1c-.27,0-.53-.03-.8-.08-2.22-.44-3.68-2.61-3.25-4.83.38-1.92,2.08-3.32,4.04-3.32.26,0,.53.03.79.08,2.22.44,3.67,2.61,3.24,4.84-.38,1.92-2.07,3.31-4.03,3.31h0Z"/>
              </g>
              <path class="cls-16" d="M46.21,17.87c-.42-3.11-1.54-5.95-3.2-8.37-1.33,1.93-2.99,3.81-5.08,5.51.22.02.44.04.66.09,2.76.55,4.55,3.22,4,5.97-.54,2.76-3.21,4.55-5.97,4.01-2.75-.54-4.55-3.22-4-5.97.06-.27.13-.54.24-.8-1.2.61-2.48,1.16-3.87,1.63.04.11.06.23.08.35.16,1.22-.68,2.33-1.9,2.49-1.13.15-2.17-.57-2.45-1.64-5.8,1.2-11.7.31-17.29-1.71-.07,1.19-.02,2.4.14,3.62,1.44,10.67,11.25,18.16,21.92,16.72,10.67-1.44,18.15-11.24,16.72-21.91ZM18,32.39c-2.75-.54-4.55-3.21-4-5.97.55-2.76,3.21-4.55,5.97-4.01,2.76.55,4.55,3.22,4,5.98-.53,2.75-3.21,4.55-5.97,4ZM30.37,34.98c-2.76-.55-4.55-3.21-4.01-5.97.55-2.76,3.22-4.55,5.97-4.01,2.76.55,4.55,3.22,4.01,5.98-.54,2.75-3.22,4.55-5.97,4Z"/>
              <path class="cls-25" d="M26.91,2.7c8.76,0,16.38,6.48,17.58,15.4,1.31,9.72-5.51,18.66-15.24,19.97-.8.11-1.6.16-2.39.16-8.76,0-16.38-6.48-17.58-15.4C7.97,13.11,14.8,4.17,24.52,2.86c.8-.11,1.6-.16,2.39-.16M26.91,2.49c-.8,0-1.62.05-2.42.16-4.76.64-8.98,3.09-11.89,6.91-2.91,3.82-4.16,8.54-3.52,13.3,1.19,8.88,8.84,15.58,17.79,15.58.8,0,1.62-.05,2.42-.16,4.76-.64,8.98-3.09,11.89-6.91,2.91-3.82,4.16-8.54,3.52-13.3-1.19-8.88-8.84-15.58-17.79-15.58h0Z"/>
              <g class="cls-18">
                <path class="cls-21" d="M26.91,2.95c8.72,0,16.17,6.53,17.33,15.18.62,4.64-.6,9.24-3.43,12.96-2.84,3.72-6.95,6.11-11.59,6.73-.78.11-1.57.16-2.36.16-8.72,0-16.17-6.53-17.33-15.18-.62-4.64.6-9.24,3.43-12.96s6.95-6.11,11.59-6.73c.78-.11,1.57-.16,2.36-.16M26.91,2.7c-.79,0-1.59.05-2.39.16-9.72,1.31-16.54,10.25-15.24,19.97,1.2,8.92,8.82,15.4,17.58,15.4.79,0,1.59-.05,2.39-.16,9.72-1.31,16.54-10.25,15.24-19.97-1.2-8.92-8.82-15.4-17.58-15.4h0Z"/>
              </g>
              <g class="cls-18">
                <path class="cls-21" d="M26.9,1.47c6.27,0,12.14,3.11,15.69,8.31,1.67,2.43,2.72,5.18,3.12,8.16,1.39,10.38-5.92,19.95-16.29,21.35-.85.11-1.71.17-2.56.17-9.46,0-17.54-7.08-18.8-16.46-.16-1.17-.2-2.35-.14-3.52C8.38,10.36,15.29,2.87,24.35,1.65c.85-.11,1.7-.17,2.55-.17M28.96,16.2c2.65,0,4.95-1.89,5.47-4.5.29-1.46,0-2.95-.84-4.19-.83-1.24-2.1-2.08-3.55-2.36-.36-.07-.73-.11-1.09-.11-2.66,0-4.96,1.9-5.46,4.5-.29,1.47,0,2.96.84,4.2.83,1.24,2.09,2.07,3.56,2.36.36.07.72.11,1.09.11M17.23,21.41c2.66,0,4.97-1.9,5.48-4.51.59-3.02-1.39-5.96-4.41-6.55-.35-.07-.71-.1-1.07-.1-2.66,0-4.97,1.9-5.48,4.51-.59,3.02,1.39,5.96,4.41,6.55.35.07.71.1,1.07.1M37.59,25.66c2.67,0,4.97-1.9,5.48-4.51.6-3.02-1.38-5.96-4.39-6.55-.22-.05-.45-.08-.73-.1-.12,0-.24-.01-.35-.01-2.33,0-4.43,1.46-5.21,3.62-.11.26-.2.56-.27.89-.6,3.02,1.38,5.96,4.4,6.55.36.07.72.1,1.08.1M26.86,23.31c.12,0,.24,0,.37-.02.72-.1,1.36-.47,1.8-1.04.44-.58.63-1.29.53-2-.02-.16-.05-.32-.1-.44-.34-1.13-1.4-1.92-2.59-1.92-.12,0-.25,0-.37.03-1.48.19-2.53,1.56-2.34,3.05.01.12.04.23.07.33.31,1.2,1.39,2.03,2.63,2.03M18.99,32.99c2.66,0,4.96-1.89,5.47-4.5.6-3.02-1.37-5.96-4.4-6.56-.35-.07-.72-.1-1.08-.1-2.66,0-4.96,1.9-5.48,4.51-.29,1.46,0,2.95.84,4.19.83,1.24,2.09,2.08,3.55,2.36.36.07.72.11,1.09.11M31.35,35.58c2.65,0,4.96-1.89,5.47-4.5.59-3.02-1.39-5.97-4.41-6.56-.35-.07-.71-.1-1.07-.1-2.66,0-4.97,1.9-5.48,4.51-.59,3.02,1.39,5.96,4.41,6.55.36.07.72.11,1.08.11M26.9.97c-.86,0-1.74.06-2.62.18C14.84,2.42,7.89,10.25,7.42,19.44c-.07,1.19-.02,2.4.14,3.62,1.32,9.79,9.69,16.9,19.3,16.9.87,0,1.74-.06,2.62-.18,10.67-1.44,18.15-11.24,16.72-21.91-.42-3.11-1.54-5.95-3.2-8.37C39.45,4.29,33.46.97,26.9.97h0ZM28.96,15.7c-.33,0-.66-.03-.99-.1-2.76-.54-4.55-3.21-4-5.97.47-2.42,2.59-4.1,4.97-4.1.33,0,.66.03.99.1,2.75.53,4.55,3.21,4,5.97-.48,2.42-2.6,4.1-4.98,4.1h0ZM17.23,20.91c-.32,0-.65-.03-.97-.09-2.76-.55-4.55-3.22-4.01-5.97.48-2.43,2.61-4.11,4.99-4.11.32,0,.65.03.97.09,2.76.55,4.55,3.22,4.01,5.97-.48,2.43-2.61,4.11-4.99,4.11h0ZM37.59,25.16c-.32,0-.65-.03-.98-.09-2.75-.54-4.55-3.22-4-5.97.06-.27.13-.54.24-.8.73-2,2.64-3.31,4.75-3.31.11,0,.21,0,.32.01.22.02.44.04.66.09,2.76.55,4.55,3.22,4,5.97-.47,2.43-2.6,4.11-4.99,4.11h0ZM26.86,22.81c-1.01,0-1.89-.68-2.15-1.66-.02-.09-.05-.17-.06-.27-.15-1.22.69-2.34,1.91-2.49.1-.01.2-.02.3-.02.97,0,1.83.64,2.11,1.57.04.11.06.23.08.35.16,1.22-.68,2.33-1.9,2.49-.1.01-.2.02-.3.02h0ZM18.99,32.49c-.33,0-.66-.03-.99-.1-2.75-.54-4.55-3.21-4-5.97.48-2.43,2.6-4.11,4.99-4.11.32,0,.65.03.98.09,2.76.55,4.55,3.22,4,5.98-.47,2.42-2.59,4.1-4.98,4.1h0ZM31.35,35.08c-.32,0-.65-.03-.98-.1-2.76-.55-4.55-3.21-4.01-5.97.48-2.43,2.61-4.11,4.99-4.11.32,0,.65.03.97.09,2.76.55,4.55,3.22,4.01,5.98-.48,2.42-2.61,4.1-4.98,4.1h0Z"/>
              </g>
              <ellipse class="cls-10" cx="21.26" cy="4.14" rx="1.2" ry=".67" transform="translate(-.1 7.74) rotate(-20.58)"/>
              <ellipse class="cls-10" cx="23.15" cy="4.52" rx=".62" ry=".36" transform="translate(-.11 8.43) rotate(-20.58)"/>
            </g>
          </g>
          <g>
            <g>
              <path class="cls-6" d="M17.55,40.66c-6.41,0-10.78-.95-13.75-3-.78-.66-1.27-1.26-1.52-1.83C1.21,33.32.15,25.34.26,24.13c.1-1.2.88-2.42.91-2.47.05-.07.13-.11.21-.11.02,0,.05,0,.07,0,.11.03.18.13.18.24.05,4.12,5.79,7.14,7.67,8.13,2.68.91,4.92,1.26,8.23,1.26,1.07,0,2.31-.04,3.79-.12,5.46-.29,9.8-1.57,14-2.82,4.16-1.23,8.08-2.4,12.42-2.4,3.85,0,7.57.96,11.37,2.93.34.18.6.49.7.87.1.37.04.75-.17,1.07l-3.69,5.79c-.24.38-.65.6-1.11.6-.2,0-.41-.05-.6-.14-2.25-1.09-4.34-1.6-6.58-1.6-2.96,0-5.91.87-9.64,1.98-4.51,1.34-9.62,2.85-16.2,3.2-1.53.08-2.96.12-4.27.12Z"/>
              <path class="cls-2" d="M1.38,21.79c.05,4.24,5.74,7.26,7.81,8.35,2.69.92,4.99,1.28,8.35,1.28,1.13,0,2.38-.04,3.8-.12,5.49-.29,9.84-1.58,14.06-2.83,4.08-1.21,8.05-2.38,12.35-2.38,3.47,0,7.14.77,11.25,2.9.58.3.79,1.03.44,1.58l-3.69,5.79c-.2.32-.54.49-.9.49-.16,0-.33-.04-.49-.11-2.4-1.16-4.54-1.62-6.69-1.62-2.98,0-5.97.88-9.71,1.99-4.5,1.33-9.59,2.84-16.14,3.19-1.51.08-2.93.12-4.26.12-6.36,0-10.68-.94-13.61-2.95-.65-.55-1.18-1.14-1.43-1.73-1.05-2.46-2.11-10.44-2.01-11.59.1-1.15.87-2.36.87-2.36M1.38,21.29c-.17,0-.33.08-.42.23-.03.05-.85,1.33-.95,2.59-.1,1.23.96,9.29,2.05,11.82.26.61.77,1.24,1.56,1.91.01.01.03.02.04.03,3.01,2.07,7.43,3.04,13.89,3.04,1.31,0,2.75-.04,4.28-.12,6.61-.35,11.73-1.87,16.26-3.21,3.71-1.1,6.64-1.97,9.57-1.97,2.2,0,4.26.5,6.47,1.57.22.11.46.16.71.16.54,0,1.03-.27,1.32-.72l3.69-5.79c.24-.38.31-.84.2-1.27-.12-.44-.42-.81-.83-1.02-3.83-1.99-7.59-2.96-11.48-2.96-4.37,0-8.31,1.17-12.49,2.41-4.18,1.24-8.51,2.52-13.94,2.81-1.47.08-2.71.12-3.77.12-3.27,0-5.48-.34-8.15-1.24-1.89-.99-7.46-3.95-7.5-7.89,0-.22-.15-.41-.36-.47-.05-.01-.09-.02-.14-.02h0Z"/>
            </g>
            <path class="cls-6" d="M59.53,30.4l-3.87,6.07c-.26.4-.77.53-1.2.32-5.77-2.84-10-1.62-16.43.29-.03,0-.05.01-.08.02-.19.06-.38.11-.57.17-4.36,1.28-9.29,2.68-15.57,3.02-1.51.08-2.93.12-4.26.12-1.62,0-3.1-.06-4.46-.19-.6-.05-1.18-.11-1.73-.19-3.14-.45-5.56-1.3-7.42-2.57-.65-.56-1.17-1.14-1.42-1.73-1.06-2.46-2.11-10.44-2.01-11.59.06-.74.4-1.5.64-1.95v-.04s.31-.69,1.2-1.33c0,0-.19,2.64,1.21,4.77,1.41,2.13,4.34,3.95,6.04,4.63.19.07.4.15.63.22.51.16,1.12.31,1.73.46.15.03.31.07.46.1,2.41.46,5,.51,8.91.3,5.49-.29,9.85-1.58,14.06-2.83.64-.19,1.28-.38,1.92-.56.42-.12.83-.24,1.24-.35,6.33-1.74,12.66-2.68,20.64,1.53.47.25.63.86.34,1.31Z"/>
            <g>
              <path class="cls-21" d="M9.32,30.92c.64.26,1.63.53,2.95.82,1.55.29,3.22.43,5.26.43,1.09,0,2.34-.04,3.84-.12,5.58-.29,9.98-1.6,14.23-2.86,4.08-1.21,7.94-2.37,12.13-2.35,6.29.02,11.93,3.23,11.93,3.23.08-.6-.28-.87-.67-1.07-4.12-2.14-7.8-2.91-11.27-2.91-4.29,0-8.26,1.17-12.35,2.38-4.21,1.25-8.57,2.54-14.06,2.83-1.42.08-2.67.12-3.8.12-1.98,0-3.58-.13-5.12-.42-1.02-.23-2.11-.5-2.81-.78-1.7-.68-4.64-2.5-6.04-4.63-1.4-2.13-1.21-4.77-1.21-4.77-.25.18-.45.37-.62.54-.19.96-.02,1.38-.02,1.38h0s0,0,.01-.01c.16.98.5,2.18,1.22,3.27,1.55,2.35,4.67,4.23,6.39,4.91Z"/>
              <path class="cls-21" d="M54.95,36.2h0c-2.49-1.25-4.82-1.83-7.29-1.83-3.11,0-6.26.94-9.92,2.02-4.46,1.32-9.51,2.82-15.97,3.16-1.51.08-2.93.12-4.22.12-6.17,0-10.35-.89-13.15-2.8-1.34-1.09-1.73-1.67-2.26-2.23.12.43.25.81.38,1.1.25.59.78,1.17,1.43,1.73,2.93,2.02,7.24,2.95,13.61,2.95,1.33,0,2.75-.04,4.26-.12,6.55-.35,11.65-1.86,16.14-3.19,3.73-1.11,6.73-1.99,9.71-1.99,2.14,0,4.26.45,6.65,1.6.44.21.93.12,1.27-.2l-.63-.32Z"/>
            </g>
            <line class="cls-7" x1="6.15" y1="28.65" x2="7.53" y2="38.67"/>
            <line class="cls-7" x1="18.54" y1="31.78" x2="19.43" y2="40.17"/>
            <line class="cls-7" x1="30.78" y1="30.25" x2="31.33" y2="38.59"/>
            <line class="cls-7" x1="42.74" y1="27.14" x2="42.4" y2="35.35"/>
            <line class="cls-7" x1="52.95" y1="27.39" x2="50.19" y2="34.71"/>
            <path class="cls-17" d="M11.36,40.03c-3.14-.45-5.56-1.3-7.42-2.57-.65-.56-1.17-1.14-1.42-1.73-1.06-2.46-2.11-10.44-2.01-11.59.06-.74.4-1.5.64-1.95v-.04s.31-.69,1.2-1.33c0,0-.19,2.64,1.21,4.77,1.41,2.13,4.34,3.95,6.04,4.63.19.07.4.15.63.22-.27,3.8.17,7,1.13,9.59Z"/>
            <path class="cls-17" d="M59.53,30.4l-3.87,6.07c-.26.4-.77.53-1.2.32-2.75-1.35-5.15-1.78-7.6-1.66-2.7.14-5.46.95-8.83,1.95.75-3.19.76-6.6.52-9.52,3.57-.98,7.13-1.71,10.99-1.39,3,.23,6.17,1.08,9.65,2.92.47.25.63.86.34,1.31Z"/>
            <path class="cls-12" d="M37.38,37.27c-1.33.39-2.71.79-4.17,1.17-3.32.86-7.03,1.61-11.4,1.85-1.13.06-2.21.1-3.25.11-.34.01-.68.01-1.01.01-1.62,0-3.1-.06-4.46-.19-1.01-3.63-1.27-6.74-1.13-9.32.15.03.31.07.46.1,1.51.29,3.08.42,5.01.42,1.15,0,2.43-.04,3.9-.12,4.19-.22,7.72-1.03,11.03-1.95,1.03-.29,2.04-.59,3.03-.88.64-.19,1.28-.38,1.92-.56.72,3.02.53,6.43.07,9.36Z"/>
            <path class="cls-14" d="M33.21,38.44c-3.32.86-7.03,1.61-11.4,1.85-1.13.06-2.21.1-3.25.11-.87-3-1.11-6.4-1.13-8.98,1.15,0,2.43-.04,3.9-.12,4.19-.22,7.72-1.03,11.03-1.95,1.05,3.52,1.12,6.63.85,9.09Z"/>
            <path class="cls-13" d="M59.53,30.4l-3.87,6.07c-.26.4-.77.53-1.2.32-2.75-1.35-5.15-1.78-7.6-1.66,1.68-3.48,2.41-6.54,2.68-8.96,3,.23,6.17,1.08,9.65,2.92.47.25.63.86.34,1.31Z"/>
          </g>
        </g>
        <g>
          <g>
            <path class="cls-3" d="M71.86,40.76c-.13,0-.25-.06-.32-.17l-5.57-8.05c-.07-.1-.09-.22-.05-.33.03-.11.12-.21.23-.25.09-.04,9.28-3.92,16.59-11.88.07-.08.17-.12.28-.13,0,0,0,0,.01,0,.1,0,.2.04.27.11l6.31,7.68c.12.15.12.36,0,.51-.07.08-7.46,8.45-17.59,12.49-.05.02-.1.03-.15.03Z"/>
            <path class="cls-1" d="M83.02,20.33l.03.02,6.25,7.62s-7.28,8.33-17.44,12.38l-4.55-6.59-1.02-1.47s9.27-3.86,16.73-11.98M83.03,19.56s-.01,0-.02,0c-.21,0-.42.09-.57.24-7.25,7.89-16.36,11.75-16.46,11.78-.22.09-.38.28-.45.5-.07.23-.03.47.11.67l1.02,1.47,4.55,6.59c.15.22.39.34.64.34.1,0,.2-.02.29-.06,10.22-4.07,17.44-12.25,17.74-12.59.25-.29.26-.72.02-1.01l-6.25-7.62s-.04-.05-.06-.07c-.15-.14-.35-.23-.56-.23h0Z"/>
          </g>
          <g>
            <path class="cls-8" d="M69,33.96l2.64,3.9c.4.6,1.18.83,1.84.54,2.45-1.05,8.36-3.97,13.55-9.42.53-.56.57-1.44.06-2.03l-3.14-3.71c-.56-.66-1.55-.72-2.18-.12-2.09,1.97-6.82,6.1-12.14,8.62-.84.4-1.15,1.45-.62,2.22Z"/>
            <line class="cls-8" x1="70.08" y1="31.58" x2="74.54" y2="37.9"/>
          </g>
          <g>
            <path class="cls-9" d="M75.19,32.39c-.09-.13-.18-.26-.27-.39-.62.4-1.23.81-1.85,1.22.09.14.18.28.28.41.21-.15.43-.29.65-.43.38.57.79,1.12,1.17,1.68.17-.12.34-.24.51-.36-.38-.57-.77-1.12-1.16-1.68.22-.15.45-.31.68-.45Z"/>
            <path class="cls-9" d="M75.2,31.83c.47.67.95,1.34,1.39,2.03.17-.12.35-.22.53-.32-.45-.69-.91-1.37-1.39-2.04-.18.11-.35.21-.53.32Z"/>
            <path class="cls-9" d="M78.62,32.2c-.47.23-.95.22-1.26-.22s-.09-.83.3-1.1c.18-.12.35-.16.56-.21-.06-.15-.12-.3-.18-.46-.26.07-.45.11-.69.29-.61.44-1.02,1.09-.53,1.81.49.72,1.29.68,2,.34.26-.13.42-.29.6-.49-.12-.11-.23-.21-.35-.32-.12.14-.28.29-.44.37Z"/>
            <path class="cls-9" d="M80.04,28.55c-.19.17-.38.34-.58.51.01.3.03.87.04,1.11.01.24.04.18,0,.36,0,.01,0,0,0,0-.24-.31-.47-.63-.71-.94-.15.12-.32.23-.49.34.51.68,1.01,1.37,1.52,2.06.17-.11.34-.23.5-.35-.16-.21-.32-.43-.48-.64.01-.13.02-.25.04-.38.41.14.82.27,1.23.4.19-.16.37-.32.55-.49-.55-.15-1.1-.31-1.65-.47.02-.5.02-1,.03-1.51Z"/>
            <path class="cls-9" d="M82,29.55c-.12-.15-.24-.3-.36-.45.26-.25.52-.5.77-.76-.1-.13-.2-.25-.3-.38-.26.25-.52.5-.77.75-.11-.13-.21-.27-.32-.4.28-.26.55-.53.82-.79-.1-.13-.2-.25-.3-.38-.42.4-.84.8-1.27,1.2.53.67,1.05,1.35,1.59,2.01.45-.41.89-.85,1.33-1.28-.11-.12-.21-.25-.32-.37-.29.28-.57.57-.86.85Z"/>
            <path class="cls-9" d="M83.1,26.35c.2-.18.4-.35.6-.52-.11-.13-.21-.26-.32-.38-.56.49-1.1.98-1.63,1.5.1.13.2.25.31.38.19-.18.38-.37.58-.55.42.54.82,1.09,1.28,1.6.15-.14.31-.27.47-.4-.46-.52-.85-1.08-1.28-1.62Z"/>
          </g>
          <path class="cls-19" d="M89.3,27.98s-7.28,8.33-17.44,12.38l-4.55-6.59c3.32.52,7.66.29,11.31-2.91,3.25-2.85,4.27-6.94,4.43-10.51l6.25,7.62Z"/>
          <g class="cls-15">
            <path class="cls-21" d="M83.02,20.6l6.05,7.38c-.9.99-7.84,8.42-17.14,12.17l-4.47-6.47-.9-1.29c1.38-.61,9.69-4.48,16.46-11.79M83.02,20.33c-7.46,8.12-16.73,11.98-16.73,11.98l1.02,1.47,4.55,6.59c10.16-4.05,17.44-12.38,17.44-12.38l-6.25-7.62-.03-.02h0Z"/>
          </g>
          <path class="cls-11" d="M72.09,39.71l-4.99-7.23s4.09-1.75,9.15-5.6c5.06-3.85,6.68-5.76,6.68-5.76l5.73,6.73s-7.88,8.62-16.56,11.86Z"/>
        </g>
      </g>
    </g>
  </g>
</svg>