<?xml version="1.0" encoding="UTF-8"?>
<svg xmlns="http://www.w3.org/2000/svg" xmlns:xlink="http://www.w3.org/1999/xlink" viewBox="0 0 60.57 48.21">
  <defs>
    <style>
      .cls-1 {
        fill: #09070a;
      }

      .cls-2 {
        fill: url(#radial-gradient-7);
      }

      .cls-3 {
        fill: url(#radial-gradient-6);
      }

      .cls-4 {
        fill: url(#radial-gradient-5);
      }

      .cls-5 {
        fill: url(#radial-gradient-4);
      }

      .cls-6 {
        fill: url(#radial-gradient-9);
      }

      .cls-7 {
        fill: url(#radial-gradient-8);
      }

      .cls-8 {
        fill: url(#radial-gradient-3);
      }

      .cls-9 {
        fill: url(#radial-gradient-2);
      }

      .cls-10 {
        fill: #231b29;
      }

      .cls-11, .cls-12, .cls-13, .cls-14, .cls-15, .cls-16, .cls-17, .cls-18, .cls-19, .cls-20, .cls-21 {
        mix-blend-mode: overlay;
      }

      .cls-11, .cls-22 {
        fill: #fff;
      }

      .cls-23 {
        fill: url(#radial-gradient);
      }

      .cls-24 {
        fill: #e9f0fa;
      }

      .cls-25 {
        isolation: isolate;
      }

      .cls-12 {
        fill: url(#linear-gradient);
      }

      .cls-26 {
        fill: #c7c7c7;
      }

      .cls-13 {
        fill: url(#linear-gradient-2);
      }

      .cls-14 {
        fill: url(#linear-gradient-3);
      }

      .cls-15 {
        fill: url(#linear-gradient-4);
      }

      .cls-16 {
        fill: url(#linear-gradient-6);
      }

      .cls-17 {
        fill: url(#linear-gradient-5);
      }

      .cls-18 {
        fill: url(#linear-gradient-7);
      }

      .cls-27 {
        fill: url(#radial-gradient-12);
      }

      .cls-28 {
        fill: url(#radial-gradient-14);
      }

      .cls-29 {
        fill: url(#radial-gradient-13);
      }

      .cls-30 {
        fill: url(#radial-gradient-10);
      }

      .cls-31 {
        fill: url(#radial-gradient-11);
      }

      .cls-32 {
        fill: url(#radial-gradient-15);
      }

      .cls-33 {
        fill: none;
        stroke: #fff;
        stroke-miterlimit: 10;
        stroke-width: .28px;
      }

      .cls-34 {
        fill: #750d08;
      }

      .cls-20 {
        opacity: .55;
      }

      .cls-21 {
        opacity: .66;
      }

      .cls-35 {
        fill: #fc352d;
      }

      .cls-36 {
        fill: #fab464;
      }
    </style>
    <radialGradient id="radial-gradient" cx="107.73" cy="3.42" fx="107.73" fy="3.42" r="4.25" gradientTransform="translate(-58.54 -23.8) rotate(13.5)" gradientUnits="userSpaceOnUse">
      <stop offset="0" stop-color="#fcfcc5"/>
      <stop offset="1" stop-color="#ffe3b2"/>
    </radialGradient>
    <radialGradient id="radial-gradient-2" cx="108.12" cy="8.24" fx="108.12" fy="8.24" r="4.25" xlink:href="#radial-gradient"/>
    <radialGradient id="radial-gradient-3" cx="-844.6" cy="572.28" fx="-844.6" fy="572.28" r="4.25" gradientTransform="translate(-203.44 -983.86) rotate(-69.07)" xlink:href="#radial-gradient"/>
    <radialGradient id="radial-gradient-4" cx="71.46" cy="72.65" fx="71.46" fy="72.65" r="4.25" gradientTransform="translate(-19.78 -76.37) rotate(9.22)" xlink:href="#radial-gradient"/>
    <radialGradient id="radial-gradient-5" cx="63.14" cy="80.83" fx="63.14" fy="80.83" r="4.25" gradientTransform="translate(-19.78 -76.37) rotate(9.22)" xlink:href="#radial-gradient"/>
    <radialGradient id="radial-gradient-6" cx="112.93" cy="10.24" fx="112.93" fy="10.24" r="4.25" xlink:href="#radial-gradient"/>
    <radialGradient id="radial-gradient-7" cx="109.4" cy="15.93" fx="109.4" fy="15.93" r="4.25" xlink:href="#radial-gradient"/>
    <radialGradient id="radial-gradient-8" cx="101.84" cy="16.25" fx="101.84" fy="16.25" r="4.25" xlink:href="#radial-gradient"/>
    <radialGradient id="radial-gradient-9" cx="-246.12" cy="430.57" fx="-246.12" fy="430.57" r="4.25" gradientTransform="translate(132.04 -481.04) rotate(-20.43)" xlink:href="#radial-gradient"/>
    <radialGradient id="radial-gradient-10" cx="-358.32" cy="499.78" fx="-358.32" fy="499.78" r="4.25" gradientTransform="translate(133.24 -595.94) rotate(-28.36)" xlink:href="#radial-gradient"/>
    <radialGradient id="radial-gradient-11" cx="-1671.17" cy="93.44" fx="-1671.17" fy="93.44" r="4.25" gradientTransform="translate(-1626.61 -198.63) rotate(-176.22) scale(1 -1)" xlink:href="#radial-gradient"/>
    <radialGradient id="radial-gradient-12" cx="-1678.76" cy="101.67" fx="-1678.76" fy="101.67" r="4.25" gradientTransform="translate(-1626.61 -198.63) rotate(-176.22) scale(1 -1)" xlink:href="#radial-gradient"/>
    <radialGradient id="radial-gradient-13" cx="103.88" cy="54.33" fx="103.88" fy="54.33" r="4.25" gradientTransform="translate(-36.08 -53.38) rotate(10.88)" xlink:href="#radial-gradient"/>
    <radialGradient id="radial-gradient-14" cx="100.09" cy="12.05" fx="100.09" fy="12.05" r="4.25" xlink:href="#radial-gradient"/>
    <radialGradient id="radial-gradient-15" cx="113.78" cy="16.57" fx="113.78" fy="16.57" r="4.25" xlink:href="#radial-gradient"/>
    <linearGradient id="linear-gradient" x1="31.97" y1="27.36" x2="20.99" y2="56.55" gradientUnits="userSpaceOnUse">
      <stop offset=".21" stop-color="#fff"/>
      <stop offset=".83" stop-color="#fff" stop-opacity="0"/>
    </linearGradient>
    <linearGradient id="linear-gradient-2" x1="37.69" y1="10.33" x2="29.78" y2="34.92" xlink:href="#linear-gradient"/>
    <linearGradient id="linear-gradient-3" x1="79.06" y1="5.09" x2="78.02" y2="12.82" gradientTransform="translate(29.71 -62.99) rotate(90)" xlink:href="#linear-gradient"/>
    <linearGradient id="linear-gradient-4" x1="80.28" y1="5.26" x2="79.24" y2="12.98" gradientTransform="translate(32.18 -62.02) rotate(90)" xlink:href="#linear-gradient"/>
    <linearGradient id="linear-gradient-5" x1="48.22" y1="33.28" x2="37.38" y2="62.11" xlink:href="#linear-gradient"/>
    <linearGradient id="linear-gradient-6" x1="53.18" y1="16.98" x2="46.15" y2="38.84" xlink:href="#linear-gradient"/>
    <linearGradient id="linear-gradient-7" x1="12.6" y1="30.12" x2="11.52" y2="43.11" gradientUnits="userSpaceOnUse">
      <stop offset="0" stop-color="#fff"/>
      <stop offset=".83" stop-color="#fff" stop-opacity="0"/>
    </linearGradient>
  </defs>
  <g class="cls-25">
    <g id="Layer_2" data-name="Layer 2">
      <g id="Layer_1-2" data-name="Layer 1">
        <g>
          <g>
            <g>
              <g>
                <g>
                  <path class="cls-23" d="M47.01,9.08c-1.07,0-2.24-.63-2.55-2.02-.17.03-.43.06-.73.06-1.38,0-2.32-.64-2.66-1.81-.5-1.77.52-2.66.99-2.97.12-.08.23-.14.31-.18-.02-.79.24-1.58,1.01-1.86.16-.06.32-.08.47-.08.71,0,1.19.56,1.4.85.22-.08.62-.19,1.12-.19.81,0,1.55.29,2.21.85,1.22,1.05.91,2.36.62,3.05-.07.18-.14.32-.2.41.11.15.27.42.37.78,0,0,0,.02,0,.03.14.49.18,1.23-.35,2.05-.42.64-1.17,1.02-2.03,1.02Z"/>
                  <path class="cls-36" d="M43.85.45c.81,0,1.31.91,1.31.91,0,0,.5-.25,1.21-.25.59,0,1.33.17,2.07.8,1.1.94.84,2.13.56,2.8,0,0,0,.01,0,.02-.1.23-.2.4-.24.47t0,0h0s0,.01,0,.02c0,0,0,0,0,0,0,0,.28.32.43.83h0c.14.5.16,1.17-.32,1.89-.4.6-1.11.92-1.84.92-1.06,0-2.17-.66-2.38-2.06,0,0-.39.1-.91.1-.85,0-2.05-.26-2.44-1.65-.44-1.56.37-2.37.9-2.72.23-.15.41-.22.41-.22h0c0-.09-.14-1.43.87-1.8.14-.05.27-.07.4-.07M43.85,0c-.18,0-.37.03-.55.1-.86.31-1.17,1.16-1.18,1.94-.06.03-.12.07-.19.12-.5.33-1.63,1.3-1.08,3.21.36,1.27,1.39,1.97,2.87,1.97.21,0,.4-.01.56-.03.4,1.37,1.61,1.99,2.72,1.99.93,0,1.75-.42,2.21-1.12.58-.88.53-1.69.38-2.22,0-.01,0-.03,0-.04-.09-.31-.22-.56-.33-.73.04-.08.09-.18.13-.29,0,0,0-.02.01-.02h0c.53-1.27.28-2.48-.68-3.31-.69-.59-1.51-.91-2.36-.91-.43,0-.79.08-1.04.16-.27-.34-.78-.81-1.48-.81h0Z"/>
                </g>
                <g class="cls-21">
                  <path d="M48.85,7.94c-.97,1.49-3.86,1.21-4.21-1.14,0,0-2.71.68-3.35-1.55-.44-1.56.37-2.37.9-2.72-.26.56-.61,1.67.2,2.52,1.12,1.2,2.76.73,2.76.73,0,0,.16,1.82,1.89,1.96,1.42.11,2-1.06,2.14-1.69.14.49.16,1.16-.32,1.89Z"/>
                </g>
                <path class="cls-11" d="M49,4.7s0,.01,0,.02c-.1.19-.17.34-.22.43.14-.31.6-1.6-.65-2.77-1.43-1.35-3.14-.38-3.14-.38,0,0-.41-1.02-1.28-.96-.87.07-1.13,1.28-1.13,1.28h0c0-.09-.14-1.43.87-1.8,1.04-.37,1.71.84,1.71.84,0,0,1.66-.83,3.28.55,1.1.94.84,2.13.56,2.8Z"/>
                <ellipse class="cls-11" cx="47.18" cy="3.02" rx=".62" ry=".83" transform="translate(33.24 48.19) rotate(-76.5)"/>
                <ellipse class="cls-11" cx="43.83" cy="2.16" rx=".56" ry=".6" transform="translate(31.51 44.27) rotate(-76.5)"/>
              </g>
              <g>
                <path class="cls-26" d="M54.43,21.25c-3.18,0-7.77-.71-12.61-1.96-1.65-.42-16.06-4.24-15.1-7.98.29-1.14,1.71-1.67,4.47-1.67,3.17,0,7.77.71,12.61,1.96,4.13,1.06,7.93,2.38,10.72,3.71,3.33,1.59,4.72,2.95,4.38,4.27-.29,1.14-1.71,1.67-4.47,1.67Z"/>
                <path class="cls-22" d="M31.19,10.5c2.97,0,7.47.66,12.39,1.93,8.42,2.16,14.91,5.27,14.48,6.94-.18.69-1.52,1.03-3.63,1.03-2.97,0-7.47-.66-12.39-1.93-8.42-2.16-14.91-5.27-14.48-6.94.18-.69,1.52-1.03,3.63-1.03M31.19,8.78c-1.29,0-4.7,0-5.3,2.32-.6,2.32,2.27,4.03,4.84,5.26,2.83,1.36,6.69,2.7,10.87,3.77,4.9,1.26,9.58,1.98,12.82,1.98,1.29,0,4.7,0,5.3-2.32.6-2.32-2.27-4.03-4.84-5.26-2.83-1.36-6.69-2.7-10.87-3.77-4.9-1.26-9.58-1.98-12.82-1.98h0Z"/>
              </g>
              <g>
                <g>
                  <path class="cls-9" d="M46.27,13.86c-1.07,0-2.24-.63-2.55-2.02-.17.03-.43.06-.73.06-1.38,0-2.32-.64-2.66-1.81-.5-1.77.52-2.66.99-2.97.11-.08.21-.13.29-.17-.01-.49.08-1.53,1.03-1.87.16-.06.32-.08.47-.08.71,0,1.19.56,1.4.85.22-.08.62-.19,1.12-.19.81,0,1.55.29,2.21.85,1.21,1.04.91,2.36.62,3.05-.07.17-.14.31-.2.41.11.15.27.43.37.78,0,0,0,.02,0,.03.14.49.18,1.23-.35,2.05-.42.64-1.17,1.02-2.03,1.02Z"/>
                  <path class="cls-36" d="M43.11,5.22c.81,0,1.31.91,1.31.91,0,0,.5-.25,1.21-.25.59,0,1.33.17,2.07.8,1.1.94.84,2.13.56,2.8,0,0,0,.01,0,.02-.1.23-.2.4-.24.47t0,0h0s0,.01,0,.02c0,0,0,0,0,0,0,0,.28.32.43.83h0c.14.5.16,1.17-.32,1.89-.4.6-1.11.92-1.84.92-1.06,0-2.17-.66-2.38-2.06,0,0-.39.1-.91.1-.85,0-2.05-.26-2.44-1.65-.44-1.56.37-2.37.9-2.72.23-.15.41-.22.41-.22h0c0-.09-.14-1.43.87-1.8.14-.05.27-.07.4-.07M43.11,4.77c-.18,0-.37.03-.55.1-.86.31-1.17,1.16-1.18,1.94-.06.03-.12.07-.19.12-.5.33-1.62,1.3-1.08,3.21.36,1.27,1.39,1.97,2.87,1.97.21,0,.4-.01.56-.03.4,1.37,1.61,1.99,2.72,1.99.93,0,1.75-.42,2.21-1.12.57-.88.53-1.69.38-2.22,0-.01,0-.03,0-.04-.09-.31-.22-.56-.33-.73.04-.08.09-.18.13-.29,0,0,0-.02.01-.02h0c.53-1.27.28-2.48-.68-3.31-.69-.59-1.51-.91-2.36-.91-.43,0-.79.08-1.04.16-.27-.34-.78-.81-1.48-.81h0Z"/>
                </g>
                <g class="cls-21">
                  <path d="M48.11,12.72c-.97,1.49-3.86,1.21-4.21-1.14,0,0-2.71.68-3.35-1.55-.44-1.56.37-2.37.9-2.72-.26.56-.61,1.67.2,2.52,1.12,1.2,2.76.73,2.76.73,0,0,.16,1.82,1.89,1.96,1.42.11,2-1.06,2.14-1.69.14.49.16,1.16-.32,1.89Z"/>
                </g>
                <path class="cls-11" d="M48.26,9.48s0,.01,0,.02c-.1.19-.17.34-.22.43.14-.31.6-1.6-.65-2.77-1.43-1.35-3.14-.38-3.14-.38,0,0-.41-1.02-1.28-.96-.87.07-1.13,1.28-1.13,1.28h0c0-.09-.14-1.43.87-1.8,1.04-.37,1.71.84,1.71.84,0,0,1.66-.83,3.28.55,1.1.94.84,2.13.56,2.8Z"/>
                <ellipse class="cls-11" cx="46.44" cy="7.79" rx=".62" ry=".83" transform="translate(28.02 51.13) rotate(-76.5)"/>
                <ellipse class="cls-11" cx="43.09" cy="6.93" rx=".56" ry=".6" transform="translate(26.29 47.21) rotate(-76.5)"/>
              </g>
              <g>
                <g>
                  <path class="cls-8" d="M28.85,13.88c-1.39,0-2.02-.88-2.27-1.41-.06-.12-.1-.23-.13-.31-.49-.05-1.5-.27-1.72-1.26-.19-.89.49-1.5,1-1.76-.12-.53-.29-1.99,1.09-3.22.49-.43,1.03-.65,1.63-.65s1.14.24,1.48.43c.17.1.29.18.38.25.16-.08.46-.21.83-.27.12-.02.24-.03.37-.03.59,0,1.14.22,1.64.64.72.62.97,1.71.61,2.72-.35.97-1.16,1.59-2.19,1.69.05,1.08-.34,2.86-2.18,3.13-.19.03-.37.04-.54.04Z"/>
                  <path class="cls-36" d="M28.45,5.49c.55,0,1.03.21,1.37.4,0,0,.01,0,.01,0,.22.13.38.25.43.3t0,0h0s0,0,.01,0c0,0,0,0,0,0,0,0,.36-.24.88-.32h0c.11-.02.22-.02.34-.02.45,0,.97.14,1.49.58,1.35,1.16.7,3.98-1.68,4.03,0,0,.32,2.78-1.97,3.12-.18.03-.35.04-.51.04-1.25,0-1.83-.77-2.07-1.28-.12-.25-.16-.43-.16-.43h0c-.09,0-1.44-.04-1.66-1.09-.24-1.08,1.05-1.59,1.05-1.59,0,0-.61-1.76.97-3.18.5-.45,1.01-.6,1.48-.6M28.45,5.05c-.65,0-1.25.24-1.78.71-1.33,1.2-1.3,2.6-1.19,3.27-.55.33-1.17.98-.97,1.92.19.89,1,1.31,1.77,1.42.02.06.06.13.09.21.27.57.96,1.53,2.47,1.53.18,0,.38-.01.57-.04,1.89-.28,2.37-1.99,2.38-3.16,1.02-.17,1.82-.82,2.17-1.81.39-1.09.12-2.28-.67-2.96-.54-.46-1.14-.69-1.79-.69-.13,0-.25,0-.37.03-.01,0-.03,0-.04,0-.32.05-.58.15-.77.23-.08-.05-.17-.11-.27-.17,0,0-.01,0-.02-.01h0c-.36-.21-.94-.46-1.6-.46h0Z"/>
                </g>
                <g class="cls-21">
                  <path d="M33,6.47c1.35,1.16.7,3.98-1.68,4.03,0,0,.32,2.78-1.97,3.12-1.61.24-2.31-.67-2.58-1.24.52.33,1.57.82,2.53.13,1.34-.96,1.08-2.64,1.08-2.64,0,0,1.83.07,2.18-1.62.29-1.39-.79-2.12-1.4-2.34.51-.08,1.17,0,1.83.56Z"/>
                </g>
                <path class="cls-11" d="M29.82,5.9s.01,0,.01,0c.17.12.32.22.39.27-.29-.18-1.51-.8-2.83.28-1.53,1.24-.79,3.06-.79,3.06,0,0-1.07.28-1.11,1.14-.04.87,1.12,1.28,1.12,1.28h0c-.09,0-1.44-.04-1.66-1.09-.24-1.08,1.05-1.59,1.05-1.59,0,0-.61-1.76.97-3.18,1.08-.96,2.22-.56,2.85-.19Z"/>
                <ellipse class="cls-11" cx="27.91" cy="7.48" rx=".83" ry=".62" transform="translate(10.95 30.87) rotate(-69.07)"/>
                <ellipse class="cls-11" cx="26.62" cy="10.69" rx=".6" ry=".56" transform="translate(7.12 31.73) rotate(-69.07)"/>
              </g>
              <g>
                <g>
                  <path class="cls-5" d="M40.85,11.08c-.91,0-2.08-.48-2.49-1.83-.23.05-.6.12-1.03.12-.86,0-1.98-.28-2.48-1.62-.63-1.73.33-2.7.77-3.03.11-.08.21-.15.28-.19-.05-.49-.04-1.53.89-1.94.18-.08.37-.12.56-.12.66,0,1.14.49,1.36.75.25-.11.73-.29,1.35-.29.72,0,1.4.23,2.03.7,1.29.95,1.09,2.29.85,3-.06.18-.12.32-.17.43.12.14.3.4.43.75,0,0,0,.02,0,.03.17.48.27,1.21-.2,2.07-.4.72-1.22,1.17-2.15,1.17Z"/>
                  <path class="cls-36" d="M37.34,2.69c.77,0,1.29.81,1.29.81,0,0,.58-.35,1.41-.35.55,0,1.21.15,1.89.65,1.16.86,1,2.06.77,2.75,0,0,0,.01,0,.02-.08.24-.16.42-.2.48t0,0h0s0,.01,0,.02c0,0,0,0,0,0,0,0,.3.3.49.8h0c.18.48.24,1.15-.18,1.91-.38.69-1.16,1.06-1.96,1.06-1.01,0-2.04-.59-2.33-1.88,0,0-.53.18-1.19.18-.81,0-1.82-.27-2.27-1.47-.56-1.52.19-2.39.69-2.78.22-.17.39-.24.39-.24h0c-.01-.09-.25-1.42.74-1.86.17-.07.32-.1.47-.1M37.34,2.25c-.22,0-.44.05-.66.14-.83.37-1.08,1.24-1.03,2.02-.06.04-.12.08-.18.13-.48.36-1.52,1.42-.84,3.28.42,1.14,1.38,1.77,2.69,1.77.34,0,.65-.04.89-.09.42,1.1,1.42,1.79,2.64,1.79,1.01,0,1.91-.49,2.35-1.29.51-.92.4-1.72.22-2.24,0-.01,0-.03-.01-.04-.11-.3-.26-.54-.38-.71.04-.09.08-.19.11-.3,0,0,0-.02,0-.02h0c.44-1.31.1-2.49-.93-3.25-.67-.49-1.39-.74-2.16-.74-.54,0-1,.13-1.29.24-.28-.3-.78-.71-1.42-.71h0Z"/>
                </g>
                <g class="cls-21">
                  <path d="M42.8,9.8c-.86,1.55-3.76,1.49-4.29-.82,0,0-2.65.88-3.46-1.3-.56-1.52.19-2.39.69-2.78-.22.58-.48,1.71.39,2.5,1.21,1.12,2.81.53,2.81.53,0,0,.3,1.81,2.03,1.81,1.42,0,1.92-1.2,2.01-1.85.18.48.24,1.15-.18,1.91Z"/>
                </g>
                <path class="cls-11" d="M42.71,6.56s0,.01,0,.02c-.08.19-.15.35-.19.44.12-.32.48-1.64-.85-2.72-1.53-1.24-3.16-.15-3.16-.15,0,0-.49-.99-1.35-.86-.86.14-1.03,1.36-1.03,1.36h0c-.01-.09-.25-1.42.74-1.86,1.01-.45,1.77.71,1.77.71,0,0,1.6-.96,3.31.31,1.16.86,1,2.06.77,2.75Z"/>
                <ellipse class="cls-11" cx="40.78" cy="5.01" rx=".62" ry=".83" transform="translate(29.3 44.46) rotate(-80.78)"/>
                <ellipse class="cls-11" cx="37.37" cy="4.4" rx=".56" ry=".6" transform="translate(27.04 40.59) rotate(-80.78)"/>
              </g>
              <g>
                <g>
                  <path class="cls-4" d="M31.32,17.83c-.91,0-2.08-.48-2.49-1.83-.23.05-.6.12-1.03.12-.86,0-1.98-.28-2.48-1.62-.63-1.73.33-2.7.77-3.03.11-.08.2-.15.28-.19-.05-.49-.04-1.53.89-1.94.18-.08.37-.12.56-.12.66,0,1.14.49,1.36.75.25-.11.73-.29,1.35-.29.72,0,1.4.23,2.03.7,1.29.95,1.09,2.29.85,3-.06.18-.12.33-.17.43.12.14.3.4.43.75,0,.01,0,.02,0,.03.17.48.27,1.21-.2,2.06-.4.72-1.22,1.17-2.15,1.17Z"/>
                  <path class="cls-36" d="M27.81,9.44c.77,0,1.29.81,1.29.81,0,0,.58-.35,1.41-.35.55,0,1.21.15,1.89.65,1.16.86,1,2.06.77,2.75,0,0,0,.01,0,.02-.08.24-.16.42-.2.48t0,0h0s0,.01,0,.02c0,0,0,0,0,0,0,0,.3.3.49.8h0c.18.48.24,1.15-.18,1.91-.38.69-1.16,1.06-1.96,1.06-1.01,0-2.04-.59-2.33-1.88,0,0-.53.18-1.19.18-.81,0-1.82-.27-2.27-1.47-.56-1.52.19-2.39.69-2.78.22-.17.39-.24.39-.24h0c-.01-.09-.25-1.42.74-1.86.17-.07.32-.1.47-.1M27.81,8.99c-.22,0-.44.05-.66.14-.83.37-1.08,1.24-1.03,2.02-.06.04-.12.08-.18.13-.48.36-1.52,1.42-.84,3.28.42,1.14,1.38,1.77,2.69,1.77.34,0,.65-.04.89-.09.42,1.1,1.42,1.79,2.64,1.79,1.01,0,1.91-.49,2.35-1.29.51-.92.4-1.72.22-2.24,0-.01,0-.03-.01-.04-.11-.3-.26-.54-.38-.71.04-.09.08-.19.11-.3,0,0,0-.02,0-.02h0c.44-1.31.1-2.49-.93-3.25-.67-.49-1.39-.74-2.16-.74-.54,0-1,.13-1.29.24-.28-.3-.78-.71-1.42-.71h0Z"/>
                </g>
                <g class="cls-21">
                  <path d="M33.27,16.54c-.86,1.55-3.76,1.49-4.29-.82,0,0-2.65.88-3.46-1.3-.56-1.52.19-2.39.69-2.78-.22.58-.48,1.71.39,2.5,1.21,1.12,2.81.53,2.81.53,0,0,.3,1.81,2.03,1.81,1.42,0,1.92-1.2,2.01-1.85.18.48.24,1.15-.18,1.91Z"/>
                </g>
                <path class="cls-11" d="M33.18,13.3s0,.01,0,.02c-.08.19-.15.35-.19.44.12-.32.48-1.64-.85-2.72-1.53-1.24-3.16-.15-3.16-.15,0,0-.49-.99-1.35-.86-.86.14-1.03,1.36-1.03,1.36h0c-.01-.09-.25-1.42.74-1.86,1.01-.45,1.77.71,1.77.71,0,0,1.6-.96,3.31.31,1.16.86,1,2.06.77,2.75Z"/>
                <ellipse class="cls-11" cx="31.25" cy="11.76" rx=".62" ry=".83" transform="translate(14.64 40.72) rotate(-80.78)"/>
                <ellipse class="cls-11" cx="27.84" cy="11.15" rx=".56" ry=".6" transform="translate(12.38 36.85) rotate(-80.78)"/>
              </g>
              <g>
                <g>
                  <path class="cls-3" d="M50.48,16.93c-1.07,0-2.24-.63-2.55-2.02-.17.03-.43.06-.73.06-1.38,0-2.32-.64-2.66-1.81-.49-1.71.41-2.59.99-2.97.11-.07.21-.13.29-.17-.01-.49.08-1.53,1.03-1.87.16-.06.32-.08.47-.08.71,0,1.19.56,1.4.85.22-.08.62-.19,1.12-.19.81,0,1.55.29,2.21.85,1.21,1.05.91,2.36.62,3.05-.07.17-.14.31-.2.41.11.15.27.43.37.79,0,0,0,.02,0,.03.14.49.18,1.23-.35,2.05-.42.64-1.17,1.02-2.03,1.02Z"/>
                  <path class="cls-36" d="M47.32,8.3c.81,0,1.31.91,1.31.91,0,0,.5-.25,1.21-.25.59,0,1.33.17,2.07.8,1.1.94.84,2.13.56,2.8,0,0,0,.01,0,.02-.1.23-.2.4-.24.47t0,0h0s0,.01,0,.02c0,0,0,0,0,0,0,0,.28.32.43.83h0c.14.5.16,1.17-.32,1.89-.4.6-1.11.92-1.84.92-1.06,0-2.17-.66-2.38-2.06,0,0-.39.1-.91.1-.85,0-2.05-.26-2.44-1.65-.44-1.56.37-2.37.9-2.72.23-.15.41-.22.41-.22h0c0-.09-.14-1.43.87-1.8.14-.05.27-.07.4-.07M47.32,7.85c-.18,0-.37.03-.55.1-.86.31-1.17,1.16-1.18,1.94-.06.03-.12.07-.19.12-.5.33-1.63,1.3-1.08,3.21.36,1.27,1.39,1.97,2.87,1.97.21,0,.4-.01.56-.03.4,1.37,1.61,1.99,2.72,1.99.93,0,1.75-.42,2.21-1.12.58-.88.53-1.69.38-2.22,0-.01,0-.03,0-.04-.09-.31-.22-.56-.33-.73.04-.08.09-.18.13-.29,0,0,0-.02.01-.02h0c.53-1.27.28-2.48-.68-3.31-.69-.59-1.51-.91-2.36-.91-.43,0-.79.08-1.04.16-.27-.34-.78-.81-1.48-.81h0Z"/>
                </g>
                <g class="cls-21">
                  <path d="M52.32,15.79c-.97,1.49-3.86,1.21-4.21-1.14,0,0-2.71.68-3.35-1.55-.44-1.56.37-2.37.9-2.72-.26.56-.61,1.67.2,2.52,1.12,1.2,2.76.73,2.76.73,0,0,.16,1.82,1.89,1.96,1.42.11,2-1.06,2.14-1.69.14.49.16,1.16-.32,1.89Z"/>
                </g>
                <path class="cls-11" d="M52.47,12.55s0,.01,0,.02c-.1.19-.17.34-.22.43.14-.31.6-1.6-.65-2.77-1.43-1.35-3.14-.38-3.14-.38,0,0-.41-1.02-1.28-.96-.87.07-1.13,1.28-1.13,1.28h0c0-.09-.14-1.43.87-1.8,1.04-.37,1.71.84,1.71.84,0,0,1.66-.83,3.28.55,1.1.94.84,2.13.56,2.8Z"/>
                <ellipse class="cls-11" cx="50.66" cy="10.87" rx=".62" ry=".83" transform="translate(28.27 57.59) rotate(-76.5)"/>
                <ellipse class="cls-11" cx="47.31" cy="10" rx=".56" ry=".6" transform="translate(26.54 53.67) rotate(-76.5)"/>
              </g>
              <g>
                <g>
                  <path class="cls-2" d="M45.72,21.64c-1.07,0-2.24-.63-2.55-2.02-.17.03-.43.06-.73.06-1.38,0-2.32-.64-2.66-1.81-.5-1.77.52-2.66.99-2.97.12-.08.23-.14.31-.18-.02-.79.24-1.58,1.01-1.86.16-.06.32-.08.47-.08.71,0,1.19.56,1.4.85.22-.08.62-.19,1.12-.19.81,0,1.55.29,2.21.85,1.22,1.05.91,2.36.62,3.05-.07.17-.14.31-.2.41.11.15.27.43.37.78,0,0,0,.02,0,.03.14.49.18,1.23-.35,2.05-.42.64-1.17,1.02-2.03,1.02Z"/>
                  <path class="cls-36" d="M42.56,13c.81,0,1.31.91,1.31.91,0,0,.5-.25,1.21-.25.59,0,1.33.17,2.07.8,1.1.94.84,2.13.56,2.8,0,0,0,.01,0,.02-.1.23-.2.4-.24.47t0,0h0s0,.01,0,.02c0,0,0,0,0,0,0,0,.28.32.43.83h0c.14.5.16,1.17-.32,1.89-.4.6-1.11.92-1.84.92-1.06,0-2.17-.66-2.38-2.06,0,0-.39.1-.91.1-.85,0-2.05-.26-2.44-1.65-.44-1.56.37-2.37.9-2.72.23-.15.41-.22.41-.22h0c0-.09-.14-1.43.87-1.8.14-.05.27-.07.4-.07M42.56,12.55c-.18,0-.37.03-.55.1-.86.31-1.17,1.16-1.18,1.94-.06.03-.12.07-.19.12-.5.33-1.63,1.3-1.08,3.21.36,1.27,1.39,1.97,2.87,1.97.21,0,.4-.01.56-.03.4,1.37,1.61,1.99,2.72,1.99.93,0,1.75-.42,2.21-1.12.57-.88.53-1.69.38-2.22,0-.01,0-.03,0-.04-.09-.31-.22-.56-.33-.73.04-.08.09-.18.13-.29,0,0,0-.02.01-.02h0c.53-1.27.28-2.48-.68-3.31-.69-.59-1.51-.91-2.36-.91-.43,0-.79.08-1.04.16-.27-.34-.78-.81-1.48-.81h0Z"/>
                </g>
                <g class="cls-21">
                  <path d="M47.56,20.49c-.97,1.49-3.86,1.21-4.21-1.14,0,0-2.71.68-3.35-1.55-.44-1.56.37-2.37.9-2.72-.26.56-.61,1.67.2,2.52,1.12,1.2,2.76.73,2.76.73,0,0,.16,1.82,1.89,1.96,1.42.11,2-1.06,2.14-1.69.14.49.16,1.16-.32,1.89Z"/>
                </g>
                <path class="cls-11" d="M47.71,17.26s0,.01,0,.02c-.1.19-.17.34-.22.43.14-.31.6-1.6-.65-2.77-1.43-1.35-3.14-.38-3.14-.38,0,0-.41-1.02-1.28-.96-.87.07-1.13,1.28-1.13,1.28h0c0-.09-.14-1.43.87-1.8,1.04-.37,1.71.84,1.71.84,0,0,1.66-.83,3.28.55,1.1.94.84,2.13.56,2.8Z"/>
                <ellipse class="cls-11" cx="45.9" cy="15.57" rx=".62" ry=".83" transform="translate(20.04 56.57) rotate(-76.5)"/>
                <ellipse class="cls-11" cx="42.55" cy="14.71" rx=".56" ry=".6" transform="translate(18.31 52.65) rotate(-76.5)"/>
              </g>
              <g>
                <g>
                  <path class="cls-7" d="M38.3,20.18c-1.07,0-2.24-.63-2.55-2.02-.17.03-.43.06-.73.06-1.38,0-2.32-.64-2.66-1.81-.5-1.77.52-2.66.99-2.97.12-.08.23-.14.31-.18-.02-.79.24-1.58,1.01-1.86.16-.06.32-.08.47-.08.71,0,1.19.56,1.4.85.22-.08.62-.19,1.12-.19.81,0,1.55.29,2.21.85,1.22,1.05.91,2.36.62,3.05-.07.18-.14.32-.2.41.11.15.27.43.37.79.14.49.2,1.25-.34,2.08-.42.64-1.17,1.02-2.03,1.02Z"/>
                  <path class="cls-36" d="M35.14,11.55c.81,0,1.31.91,1.31.91,0,0,.5-.25,1.21-.25.59,0,1.33.17,2.07.8,1.1.94.84,2.13.56,2.8,0,0,0,.01,0,.02-.1.23-.2.4-.24.47t0,0h0s0,.01,0,.02c0,0,0,0,0,0,0,0,.28.32.43.83h0c.14.5.16,1.17-.32,1.89-.4.6-1.11.92-1.84.92-1.06,0-2.17-.66-2.38-2.06,0,0-.39.1-.91.1-.85,0-2.05-.26-2.44-1.65-.44-1.56.37-2.37.9-2.72.23-.15.41-.22.41-.22h0c0-.09-.14-1.43.87-1.8.14-.05.27-.07.4-.07M35.14,11.1c-.18,0-.37.03-.55.1-.86.31-1.17,1.16-1.18,1.94-.06.03-.12.07-.19.12-.5.33-1.63,1.3-1.08,3.21.36,1.27,1.39,1.97,2.87,1.97.21,0,.4-.01.56-.03.4,1.37,1.61,1.99,2.72,1.99.93,0,1.75-.42,2.21-1.12.57-.88.53-1.69.38-2.22,0-.01,0-.03,0-.04-.09-.31-.22-.56-.33-.73.04-.08.09-.18.13-.29,0,0,0-.02.01-.02h0c.53-1.27.28-2.48-.68-3.31-.69-.59-1.51-.91-2.36-.91-.43,0-.79.08-1.04.16-.27-.34-.78-.81-1.48-.81h0Z"/>
                </g>
                <g class="cls-21">
                  <path d="M40.13,19.04c-.97,1.49-3.86,1.21-4.21-1.14,0,0-2.71.68-3.35-1.55-.44-1.56.37-2.37.9-2.72-.26.56-.61,1.67.2,2.52,1.12,1.2,2.76.73,2.76.73,0,0,.16,1.82,1.89,1.96,1.42.11,2-1.06,2.14-1.69.14.49.16,1.16-.32,1.89Z"/>
                </g>
                <path class="cls-11" d="M40.28,15.8s0,.01,0,.02c-.1.19-.17.34-.22.43.14-.31.6-1.6-.65-2.77-1.43-1.35-3.14-.38-3.14-.38,0,0-.41-1.02-1.28-.96-.87.07-1.13,1.28-1.13,1.28h0c0-.09-.14-1.43.87-1.8,1.04-.37,1.71.84,1.71.84,0,0,1.66-.83,3.28.55,1.1.94.84,2.13.56,2.8Z"/>
                <ellipse class="cls-11" cx="38.47" cy="14.12" rx=".62" ry=".83" transform="translate(15.76 48.23) rotate(-76.5)"/>
                <ellipse class="cls-11" cx="35.12" cy="13.25" rx=".56" ry=".6" transform="translate(14.03 44.31) rotate(-76.5)"/>
              </g>
              <g>
                <g>
                  <path class="cls-6" d="M49.99,11.91c-.55,0-1.07-.2-1.54-.59-1.41-1.19-1.05-2.5-.83-3.01.05-.12.11-.23.15-.3-.44-.6-.69-1.44-.19-2.12.27-.37.68-.57,1.16-.57.33,0,.63.09.82.16.29-.4,1.13-1.34,2.67-1.34.15,0,.3,0,.46.03,1.59.19,2.08,1.45,2.22,2.19.04.19.06.34.06.45.17.07.46.2.75.44.39.33.86.92.87,1.92,0,.59-.24,1.17-.69,1.63-.51.52-1.21.81-1.92.81-.65,0-1.25-.25-1.75-.71-.35.33-1.22,1.03-2.25,1.03Z"/>
                  <path class="cls-36" d="M52.23,4.35c.14,0,.28,0,.44.03,1.44.17,1.89,1.3,2.03,2.01,0,0,0,.01,0,.02.05.25.06.45.06.52t0,0h0s0,.01,0,.02c0,0,0,.01,0,.01,0,0,.41.11.82.45h0c.39.33.78.88.79,1.75.02,1.2-1.14,2.21-2.39,2.21-.6,0-1.23-.24-1.75-.81,0,0-1.01,1.12-2.25,1.12-.45,0-.92-.15-1.39-.54-1.24-1.05-1.02-2.17-.77-2.76.11-.25.22-.4.22-.4h0c-.05-.07-.92-1.11-.28-1.98.27-.37.64-.48.98-.48.48,0,.9.22.9.22,0,0,.79-1.4,2.59-1.4M52.23,3.9h0c-1.48,0-2.37.83-2.75,1.3-.2-.06-.46-.12-.74-.12-.56,0-1.02.23-1.34.66-.54.73-.32,1.61.11,2.27-.03.06-.06.13-.09.2-.24.55-.62,1.99.9,3.27.51.43,1.08.65,1.68.65.98,0,1.81-.58,2.25-.96.51.42,1.11.64,1.75.64.77,0,1.52-.32,2.08-.88.5-.5.76-1.14.76-1.79-.02-1.05-.5-1.7-.92-2.06,0,0-.02-.02-.03-.03-.25-.21-.5-.34-.68-.43-.01-.09-.03-.2-.05-.31,0,0,0-.02,0-.03h0c-.27-1.35-1.15-2.22-2.41-2.37-.17-.02-.33-.03-.49-.03h0Z"/>
                </g>
                <g class="cls-21">
                  <path d="M56.38,9.16c.02,1.78-2.53,3.16-4.13,1.41,0,0-1.87,2.08-3.65.58-1.24-1.05-1.02-2.17-.77-2.76.09.61.43,1.72,1.57,1.98,1.61.37,2.7-.93,2.7-.93,0,0,1.15,1.42,2.66.57,1.24-.7,1.07-1.99.83-2.6.39.33.78.88.79,1.74Z"/>
                </g>
                <path class="cls-11" d="M54.7,6.39s0,.01,0,.02c.03.21.05.38.05.48-.06-.33-.4-1.66-2.08-1.94-1.94-.32-2.82,1.43-2.82,1.43,0,0-.91-.62-1.59-.08-.68.54-.22,1.69-.22,1.69h0c-.05-.07-.92-1.11-.28-1.98.66-.89,1.88-.26,1.88-.26,0,0,.92-1.62,3.03-1.37,1.44.17,1.89,1.3,2.03,2.01Z"/>
                <ellipse class="cls-11" cx="52.25" cy="6" rx=".83" ry=".62" transform="translate(1.19 18.61) rotate(-20.43)"/>
                <ellipse class="cls-11" cx="48.99" cy="7.15" rx=".6" ry=".56" transform="translate(.58 17.55) rotate(-20.43)"/>
              </g>
              <g>
                <g>
                  <path class="cls-30" d="M53.85,17.84c-.44,0-.88-.13-1.3-.4-1.56-.98-1.39-2.33-1.24-2.87.03-.13.07-.24.11-.32-.34-.36-.96-1.19-.48-2.08.26-.49.73-.74,1.35-.74.22,0,.42.03.56.07.25-.47,1.07-1.7,2.92-1.73h0c1.62,0,2.26,1.17,2.5,1.86.06.18.1.33.13.44.18.04.48.14.8.34.43.27.98.8,1.13,1.78.1.64-.11,1.31-.58,1.85-.51.59-1.26.95-2.01.95-.52,0-1.03-.17-1.49-.49-.33.41-1.22,1.35-2.4,1.35Z"/>
                  <path class="cls-36" d="M55.83,9.99c1.4,0,1.99,1.04,2.23,1.71,0,0,0,.01,0,.02.08.24.12.43.13.51t0,0h0s0,.01,0,.02c0,0,0,.01,0,.01,0,0,.42.05.88.33h0c.44.27.89.76,1.02,1.62.2,1.28-1,2.54-2.37,2.54-.51,0-1.04-.17-1.53-.58,0,0-.98,1.44-2.35,1.44-.37,0-.76-.1-1.18-.36-1.37-.87-1.31-2.01-1.15-2.62.07-.27.16-.43.16-.43h0c-.06-.06-1.06-.97-.55-1.92.27-.5.75-.63,1.15-.63.37,0,.68.11.68.11,0,0,.68-1.73,2.81-1.77.02,0,.04,0,.06,0M55.83,9.54h-.07c-1.79.04-2.69,1.13-3.03,1.71-.13-.02-.28-.04-.44-.04-.7,0-1.24.31-1.54.86-.43.8-.1,1.64.42,2.23-.02.06-.04.14-.07.22-.16.58-.34,2.05,1.34,3.11.46.29.93.43,1.42.43,1.14,0,2.01-.8,2.44-1.28.45.27.94.42,1.45.42.81,0,1.63-.38,2.18-1.03.51-.59.74-1.33.63-2.03-.16-1.04-.73-1.61-1.2-1.91-.01,0-.02-.02-.03-.02-.27-.17-.54-.27-.73-.33-.02-.09-.05-.2-.09-.31,0,0,0-.02,0-.02h0c-.44-1.28-1.41-2.01-2.65-2.01h0Z"/>
                </g>
                <g class="cls-21">
                  <path d="M60.11,14.21c.27,1.76-2.07,3.48-3.9,1.96,0,0-1.57,2.32-3.53,1.08-1.37-.87-1.31-2.01-1.15-2.62.18.59.66,1.65,1.83,1.75,1.64.15,2.54-1.3,2.54-1.3,0,0,1.34,1.25,2.71.2,1.13-.87.78-2.12.46-2.69.44.27.89.76,1.02,1.62Z"/>
                </g>
                <path class="cls-11" d="M58.06,11.7s0,.01,0,.02c.05.2.1.37.12.46-.1-.32-.62-1.59-2.33-1.63-1.97-.05-2.59,1.81-2.59,1.81,0,0-.99-.49-1.59.14-.6.63.02,1.7.02,1.7h0c-.06-.06-1.06-.97-.55-1.92.53-.98,1.83-.52,1.83-.52,0,0,.68-1.73,2.81-1.77,1.44-.03,2.05,1.03,2.29,1.71Z"/>
                <ellipse class="cls-11" cx="55.58" cy="11.66" rx=".83" ry=".62" transform="translate(1.13 27.8) rotate(-28.36)"/>
                <ellipse class="cls-11" cx="52.51" cy="13.25" rx=".6" ry=".56" transform="translate(0 26.54) rotate(-28.36)"/>
              </g>
              <g>
                <g>
                  <path class="cls-31" d="M32.75,8.61c-1.14,0-2.17-.71-2.45-1.7-.27-.94,0-1.64.27-2.06,0,0,0-.02.01-.02.21-.31.44-.52.59-.64-.02-.1-.05-.25-.07-.44-.07-.76.03-2.11,1.5-2.75.47-.2.94-.31,1.41-.31.97,0,1.67.44,1.97.67.23-.17.68-.46,1.19-.46.3,0,.58.1.83.28.81.61.58,1.63.43,2.09.06.06.14.14.23.25.44.53,1.03,1.64.06,3.12-.48.73-1.18,1.11-2.03,1.11-.73,0-1.4-.28-1.73-.44-.48.83-1.28,1.29-2.22,1.29h0Z"/>
                  <path class="cls-36" d="M34.01.92c1.21,0,1.97.73,1.97.73,0,0,.55-.53,1.19-.53.22,0,.46.06.69.24.86.65.33,1.89.3,1.97h0s.15.12.32.33c.4.49.94,1.5.05,2.86-.51.78-1.2,1.01-1.84,1.01-.96,0-1.82-.52-1.82-.52-.47.97-1.3,1.37-2.13,1.37-1,0-1.97-.6-2.24-1.54-.24-.83-.03-1.47.26-1.9h0c.29-.45.66-.67.66-.67,0,0,0,0,0-.01,0,0,0,0,0-.01h0s0,0,0-.01c-.02-.07-.07-.26-.09-.52,0,0,0-.01,0-.02-.07-.72.04-1.93,1.37-2.51.48-.21.92-.29,1.32-.29M34.01.48c-.5,0-1,.11-1.5.32-1.17.51-1.77,1.59-1.63,2.96h0s0,.02,0,.03c.01.12.03.22.04.32-.15.13-.35.33-.53.6,0,.01-.01.02-.02.04-.3.47-.58,1.22-.29,2.23.31,1.08,1.43,1.86,2.67,1.86.96,0,1.77-.44,2.3-1.23.38.17.99.38,1.64.38.93,0,1.69-.42,2.21-1.21,1.09-1.67.31-2.93-.08-3.39-.05-.06-.1-.12-.15-.17.22-.76.18-1.66-.55-2.2-.29-.22-.61-.33-.96-.33-.49,0-.92.22-1.19.41-.37-.25-1.06-.61-1.97-.61h0Z"/>
                </g>
                <g class="cls-21">
                  <path d="M30.51,6.85c.49,1.71,3.33,2.3,4.36.16,0,0,2.39,1.46,3.66-.49.89-1.36.36-2.37-.05-2.86.09.61.09,1.77-.94,2.35-1.43.82-2.85-.12-2.85-.12,0,0-.7,1.69-2.38,1.31-1.39-.32-1.6-1.6-1.54-2.25-.28.43-.49,1.06-.26,1.9Z"/>
                </g>
                <path class="cls-11" d="M31.33,3.72s0,.01,0,.02c.04.21.06.38.08.47-.04-.34-.1-1.7,1.44-2.45,1.77-.87,3.11.57,3.11.57,0,0,.7-.85,1.51-.53.81.32.7,1.56.7,1.56h0c.03-.08.56-1.33-.3-1.97-.89-.67-1.88.29-1.88.29,0,0-1.34-1.29-3.29-.45-1.33.57-1.44,1.79-1.37,2.51Z"/>
                <ellipse class="cls-11" cx="33.56" cy="2.64" rx=".62" ry=".83" transform="translate(28.71 35.96) rotate(-86.22)"/>
                <ellipse class="cls-11" cx="37.02" cy="2.81" rx=".56" ry=".6" transform="translate(31.77 39.56) rotate(-86.22)"/>
              </g>
              <g>
                <g>
                  <path class="cls-27" d="M39.78,17.32c-1.14,0-2.17-.71-2.45-1.7-.27-.94,0-1.63.27-2.06,0,0,0-.02.01-.03.21-.31.45-.53.59-.64-.03-.12-.05-.26-.07-.43-.07-.76.03-2.11,1.5-2.75.47-.2.94-.31,1.41-.31.97,0,1.67.44,1.97.67.23-.17.68-.46,1.19-.46.3,0,.58.09.82.28.68.51.67,1.39.43,2.09.06.06.14.14.23.25.35.43,1.07,1.58.06,3.12-.48.73-1.18,1.11-2.03,1.11-.74,0-1.4-.28-1.73-.44-.48.83-1.28,1.29-2.22,1.29h0Z"/>
                  <path class="cls-36" d="M41.05,9.63c1.21,0,1.97.73,1.97.73,0,0,.55-.53,1.19-.53.22,0,.46.06.69.24.86.65.33,1.89.3,1.97h0s.15.12.32.33c.4.49.94,1.5.05,2.86-.51.78-1.2,1.01-1.84,1.01-.96,0-1.82-.52-1.82-.52-.47.97-1.3,1.37-2.13,1.37-1,0-1.97-.6-2.24-1.54-.24-.83-.03-1.47.26-1.9h0c.29-.45.66-.67.66-.67,0,0,0,0,0-.01,0,0,0,0,0-.01h0s0,0,0-.01c-.02-.07-.07-.26-.09-.52,0,0,0-.01,0-.02-.07-.72.04-1.93,1.37-2.51.48-.21.92-.29,1.32-.29M41.05,9.19c-.5,0-1,.11-1.5.32-1.17.51-1.77,1.59-1.63,2.96h0s0,.02,0,.03c.01.12.03.22.04.32-.15.13-.35.33-.53.6,0,.01-.02.02-.02.04-.3.47-.58,1.22-.29,2.23.31,1.08,1.43,1.86,2.67,1.86.96,0,1.78-.44,2.3-1.23.38.17.99.38,1.64.38.93,0,1.69-.42,2.21-1.21,1.09-1.67.31-2.93-.08-3.39-.05-.06-.1-.12-.15-.17.22-.76.18-1.66-.55-2.2-.29-.22-.61-.33-.96-.33-.49,0-.92.22-1.19.41-.37-.25-1.06-.61-1.97-.61h0Z"/>
                </g>
                <g class="cls-21">
                  <path d="M37.54,15.56c.49,1.71,3.33,2.3,4.36.16,0,0,2.39,1.46,3.66-.49.89-1.36.36-2.37-.05-2.86.09.61.09,1.77-.94,2.35-1.43.82-2.85-.12-2.85-.12,0,0-.7,1.69-2.38,1.31-1.39-.32-1.6-1.6-1.54-2.25-.28.43-.49,1.06-.26,1.9Z"/>
                </g>
                <path class="cls-11" d="M38.36,12.43s0,.01,0,.02c.04.21.06.38.08.47-.04-.34-.1-1.7,1.44-2.45,1.77-.87,3.11.57,3.11.57,0,0,.7-.85,1.51-.53.81.32.7,1.56.7,1.56h0c.03-.08.56-1.33-.3-1.97-.89-.67-1.88.29-1.88.29,0,0-1.34-1.29-3.29-.45-1.33.57-1.44,1.79-1.37,2.51Z"/>
                <ellipse class="cls-11" cx="40.59" cy="11.35" rx=".62" ry=".83" transform="translate(26.59 51.11) rotate(-86.22)"/>
                <ellipse class="cls-11" cx="44.05" cy="11.53" rx=".56" ry=".6" transform="translate(29.65 54.72) rotate(-86.22)"/>
              </g>
              <g>
                <g>
                  <path class="cls-29" d="M57.35,23.92c-.94,0-2.13-.5-2.52-1.9-.21.04-.54.1-.92.1-.9,0-2.08-.29-2.55-1.69-.58-1.75.4-2.69.85-3.01.12-.08.22-.15.3-.19-.06-.78.17-1.59.93-1.9.17-.07.35-.11.53-.11.67,0,1.16.52,1.38.79.24-.1.69-.25,1.26-.25.75,0,1.46.25,2.1.76,1.26.99,1.02,2.32.76,3.02-.06.17-.13.32-.18.42.11.15.29.41.41.77,0,0,0,.02,0,.03.16.48.24,1.22-.26,2.06-.41.69-1.21,1.11-2.1,1.11Z"/>
                  <path class="cls-36" d="M53.98,15.44c.78,0,1.3.85,1.3.85,0,0,.55-.31,1.34-.31.57,0,1.26.16,1.96.71,1.14.89.94,2.09.69,2.77,0,0,0,.01,0,.02-.09.24-.18.41-.22.48t0,0h0s0,.01,0,.02c0,0,0,0,0,0,0,0,.29.31.47.81h0c.17.49.21,1.16-.23,1.9-.39.65-1.14,1-1.91,1-1.03,0-2.09-.62-2.35-1.95,0,0-.48.14-1.08.14-.83,0-1.91-.27-2.33-1.54-.51-1.54.26-2.39.77-2.76.22-.16.39-.23.39-.23h0c-.01-.09-.21-1.43.79-1.83.16-.06.3-.09.44-.09M53.98,14.99c-.21,0-.41.04-.61.12-.84.34-1.11,1.21-1.09,1.99-.06.04-.12.08-.19.13-.49.35-1.56,1.37-.93,3.26.4,1.19,1.38,1.85,2.76,1.85.29,0,.56-.03.76-.06.45,1.29,1.62,1.87,2.67,1.87.97,0,1.85-.47,2.3-1.22.53-.91.45-1.71.28-2.24,0-.01,0-.03-.01-.04-.1-.31-.25-.55-.36-.72.04-.09.08-.19.12-.29,0,0,0-.02,0-.02h0c.47-1.3.17-2.49-.83-3.28-.68-.53-1.43-.8-2.24-.8-.5,0-.92.11-1.19.21-.28-.31-.78-.75-1.44-.75h0Z"/>
                </g>
                <g class="cls-21">
                  <path d="M59.26,22.7c-.9,1.53-3.8,1.38-4.26-.95,0,0-2.68.8-3.42-1.4-.51-1.54.26-2.39.77-2.76-.24.57-.53,1.69.31,2.51,1.18,1.15,2.79.61,2.79.61,0,0,.25,1.81,1.98,1.87,1.42.04,1.95-1.15,2.06-1.79.17.49.21,1.15-.23,1.9Z"/>
                </g>
                <path class="cls-11" d="M59.27,19.46s0,.01,0,.02c-.09.19-.16.35-.2.44.12-.32.52-1.62-.77-2.74-1.49-1.29-3.15-.24-3.15-.24,0,0-.46-1-1.32-.9-.86.11-1.07,1.33-1.07,1.33h0c-.01-.09-.21-1.43.79-1.83,1.03-.42,1.75.76,1.75.76,0,0,1.62-.91,3.3.4,1.14.89.94,2.09.69,2.77Z"/>
                <ellipse class="cls-11" cx="57.38" cy="17.86" rx=".62" ry=".83" transform="translate(29.01 70.83) rotate(-79.12)"/>
                <ellipse class="cls-11" cx="53.99" cy="17.15" rx=".56" ry=".6" transform="translate(26.96 66.93) rotate(-79.12)"/>
              </g>
              <g>
                <g>
                  <path class="cls-28" d="M37.57,15.69c-1.07,0-2.24-.63-2.55-2.02-.17.03-.43.06-.73.06-1.38,0-2.32-.64-2.66-1.81-.5-1.77.52-2.66.99-2.97.12-.08.23-.14.31-.18-.02-.79.24-1.58,1.01-1.86.16-.06.32-.08.47-.08.71,0,1.19.56,1.4.85.22-.08.62-.19,1.12-.19.81,0,1.55.29,2.21.85,1.22,1.05.91,2.36.62,3.05-.07.18-.15.32-.2.41.1.15.27.43.37.79,0,0,0,.02,0,.03.13.49.18,1.23-.35,2.04-.42.64-1.17,1.02-2.03,1.02Z"/>
                  <path class="cls-36" d="M34.41,7.06c.81,0,1.31.91,1.31.91,0,0,.5-.25,1.21-.25.59,0,1.33.17,2.07.8,1.1.94.84,2.13.56,2.8,0,0,0,.01,0,.02-.1.23-.2.4-.24.47t0,0h0s0,.01,0,.02c0,0,0,0,0,0,0,0,.28.32.43.83h0c.14.5.16,1.17-.32,1.89-.4.6-1.11.92-1.84.92-1.06,0-2.17-.66-2.38-2.06,0,0-.39.1-.91.1-.85,0-2.05-.26-2.44-1.65-.44-1.56.37-2.37.9-2.72.23-.15.41-.22.41-.22h0c0-.09-.14-1.43.87-1.8.14-.05.27-.07.4-.07M34.41,6.61c-.18,0-.37.03-.55.1-.86.31-1.17,1.16-1.18,1.94-.06.03-.12.07-.19.12-.5.33-1.62,1.3-1.08,3.21.36,1.27,1.39,1.97,2.87,1.97.21,0,.4-.01.56-.03.4,1.37,1.61,1.99,2.72,1.99.93,0,1.75-.42,2.21-1.12.58-.88.53-1.69.38-2.22,0-.01,0-.03,0-.04-.09-.31-.22-.56-.33-.73.04-.08.09-.18.13-.29,0,0,0-.02.01-.02h0c.53-1.27.28-2.48-.68-3.31-.69-.59-1.51-.91-2.36-.91-.43,0-.79.08-1.04.16-.27-.34-.78-.81-1.48-.81h0Z"/>
                </g>
                <g class="cls-21">
                  <path d="M39.41,14.55c-.97,1.49-3.86,1.21-4.21-1.14,0,0-2.71.68-3.35-1.55-.44-1.56.37-2.37.9-2.72-.26.56-.61,1.67.2,2.52,1.12,1.2,2.76.73,2.76.73,0,0,.16,1.82,1.89,1.96,1.42.11,2-1.06,2.14-1.69.14.49.16,1.16-.32,1.89Z"/>
                </g>
                <path class="cls-11" d="M39.56,11.31s0,.01,0,.02c-.1.19-.17.34-.22.43.14-.31.6-1.6-.65-2.77-1.43-1.35-3.14-.38-3.14-.38,0,0-.41-1.02-1.28-.96-.87.07-1.13,1.28-1.13,1.28h0c0-.09-.14-1.43.87-1.8,1.04-.37,1.71.84,1.71.84,0,0,1.66-.83,3.28.55,1.1.94.84,2.13.56,2.8Z"/>
                <ellipse class="cls-11" cx="37.74" cy="9.63" rx=".62" ry=".83" transform="translate(19.57 44.08) rotate(-76.5)"/>
                <ellipse class="cls-11" cx="34.39" cy="8.76" rx=".56" ry=".6" transform="translate(17.84 40.16) rotate(-76.5)"/>
              </g>
              <g>
                <g>
                  <path class="cls-32" d="M49.83,23.28c-1.07,0-2.24-.63-2.55-2.02-.17.03-.43.06-.73.06-1.38,0-2.32-.64-2.66-1.81-.5-1.77.52-2.66.99-2.97.12-.08.23-.14.31-.18-.02-.79.24-1.58,1.01-1.86.16-.06.32-.08.47-.08.71,0,1.19.56,1.4.85.22-.08.62-.19,1.12-.19.81,0,1.55.29,2.21.85,1.22,1.05.91,2.36.62,3.05-.07.18-.14.32-.2.41.11.15.27.43.37.79.14.49.2,1.25-.34,2.08-.42.64-1.17,1.02-2.03,1.02Z"/>
                  <path class="cls-36" d="M46.67,14.64c.81,0,1.31.91,1.31.91,0,0,.5-.25,1.21-.25.59,0,1.33.17,2.07.8,1.1.94.84,2.13.56,2.8,0,0,0,.01,0,.02-.1.23-.2.4-.24.47t0,0h0s0,.01,0,.02c0,0,0,0,0,0,0,0,.28.32.43.83h0c.14.5.16,1.17-.32,1.89-.4.6-1.11.92-1.84.92-1.06,0-2.17-.66-2.38-2.06,0,0-.39.1-.91.1-.85,0-2.05-.26-2.44-1.65-.44-1.56.37-2.37.9-2.72.23-.15.41-.22.41-.22h0c0-.09-.14-1.43.87-1.8.14-.05.27-.07.4-.07M46.67,14.2c-.18,0-.37.03-.55.1-.86.31-1.17,1.16-1.18,1.94-.06.03-.12.07-.19.12-.5.33-1.63,1.3-1.08,3.21.36,1.27,1.39,1.97,2.87,1.97.21,0,.4-.01.56-.03.4,1.37,1.61,1.99,2.72,1.99.93,0,1.75-.42,2.21-1.12.58-.88.53-1.69.38-2.22,0-.01,0-.03,0-.04-.09-.31-.22-.56-.33-.73.04-.08.09-.18.13-.29,0,0,0-.02.01-.02h0c.53-1.27.28-2.48-.68-3.31-.69-.59-1.51-.91-2.36-.91-.43,0-.79.08-1.04.16-.27-.34-.78-.81-1.48-.81h0Z"/>
                </g>
                <g class="cls-21">
                  <path d="M51.67,22.14c-.97,1.49-3.86,1.21-4.21-1.14,0,0-2.71.68-3.35-1.55-.44-1.56.37-2.37.9-2.72-.26.56-.61,1.67.2,2.52,1.12,1.2,2.76.73,2.76.73,0,0,.16,1.82,1.89,1.96,1.42.11,2-1.06,2.14-1.69.14.49.16,1.16-.32,1.89Z"/>
                </g>
                <path class="cls-11" d="M51.82,18.9s0,.01,0,.02c-.1.19-.17.34-.22.43.14-.31.6-1.6-.65-2.77-1.43-1.35-3.14-.38-3.14-.38,0,0-.41-1.02-1.28-.96-.87.07-1.13,1.28-1.13,1.28h0c0-.09-.14-1.43.87-1.8,1.04-.37,1.71.84,1.71.84,0,0,1.66-.83,3.28.55,1.1.94.84,2.13.56,2.8Z"/>
                <ellipse class="cls-11" cx="50" cy="17.21" rx=".62" ry=".83" transform="translate(21.59 61.82) rotate(-76.5)"/>
                <ellipse class="cls-11" cx="46.65" cy="16.35" rx=".56" ry=".6" transform="translate(19.86 57.9) rotate(-76.5)"/>
              </g>
            </g>
            <g>
              <g>
                <g>
                  <path class="cls-35" d="M36.26,47.7c-.05,0-.11,0-.16-.03l-4.99-1.73-2.71-.95-2.04-.7-4.56-1.59-.53-.19c-.22-.08-.35-.29-.33-.52l2.87-28.15c0-.06.02-.12.05-.18.12-.24.27-.46.43-.66.5-.63,1.08-.96,1.73-.96.84,0,1.56.54,2.03,1.03.36-.69,1.03-1.37,2.16-1.37.07,0,.15,0,.22,0,1.2.08,1.87.71,2.2,1.32.52-.4,1.33-.86,2.3-.86.38,0,.75.07,1.12.21.69.26,1.27.7,1.68,1.25.29.35.48.72.6,1.02.51-.3,1.29-.66,2.16-.66.31,0,.62.05.91.14.25.09.47.2.69.33,1.23.77,1.58,2.01,1.65,2.93.97-.69,1.99-1.06,3.04-1.09h.14c1.1,0,1.83.38,1.86.4.22.12.32.39.22.63l-12.29,30.06c-.08.19-.27.31-.46.31Z"/>
                  <path class="cls-34" d="M30.22,12.2c.06,0,.12,0,.18,0,1.86.13,2,1.71,2,1.71,0,0,1.08-1.25,2.53-1.25.3,0,.61.05.94.18.68.26,1.15.66,1.46,1.08.61.75.72,1.53.72,1.53,0,0,1.11-.96,2.44-.96.25,0,.51.03.77.11.19.07.38.16.58.28,1.82,1.14,1.38,3.59,1.38,3.59.13-.11.24-.22.36-.32,1.22-1.03,2.35-1.33,3.23-1.36.04,0,.08,0,.12,0,.99,0,1.62.34,1.62.34l-12.29,30.06-1.42-.49-1.69-.59-1.88-.65-2.71-.95-2.04-.7-2.49-.87-2.07-.72-.53-.19,2.87-28.15c.12-.23.25-.42.38-.58.44-.56.9-.77,1.34-.77,1.19,0,2.22,1.53,2.22,1.53,0,0,.29-1.87,1.98-1.87M30.22,11.2c-1.06,0-1.79.5-2.26,1.1-.51-.41-1.18-.77-1.93-.77-.56,0-1.38.2-2.13,1.15-.18.22-.34.47-.48.74-.06.11-.1.23-.11.36l-2.87,28.15c-.05.46.22.89.66,1.04l.53.19,2.08.72,2.49.87,2.05.7,2.7.95,1.88.65,1.69.59,1.42.49c.11.04.22.05.33.05.4,0,.77-.24.93-.62l12.29-30.06c.19-.47,0-1.01-.45-1.26-.09-.05-.89-.46-2.1-.46h-.15c-.92.03-1.81.29-2.66.77-.21-.88-.69-1.86-1.75-2.52-.26-.16-.51-.28-.77-.37-.02,0-.03-.01-.05-.02-.34-.11-.7-.16-1.06-.16-.74,0-1.41.22-1.94.47-.12-.22-.27-.44-.45-.67-.44-.59-1.1-1.08-1.88-1.38-.42-.16-.85-.24-1.29-.24-.87,0-1.61.31-2.17.66-.45-.56-1.18-1.04-2.29-1.12-.08,0-.17,0-.25,0h0Z"/>
                </g>
                <path class="cls-24" d="M26.52,43.81l-2.49-.86,4.21-28.88s.31-1.99,2.17-1.86c1.86.13,2,1.71,2,1.71,0,0,.02-.05.06-.11l-5.95,30.01Z"/>
                <path class="cls-24" d="M41.26,14.61l-9.99,30.86-2.7-.95,8.77-30.59c.6.75.72,1.54.72,1.54,0,0,1.57-1.37,3.21-.85Z"/>
                <path class="cls-24" d="M48.56,17.14l-12.3,30.06-3.1-1.08,10.43-27.96c2.69-2.26,4.97-1.02,4.97-1.02Z"/>
                <path class="cls-19" d="M48.55,17.14l-12.29,30.06-3.11-1.08-1.88-.65-2.71-.95-2.04-.7-2.49-.87-2.6-.91,2.87-28.15c.12-.23.25-.42.38-.58-.07,5.6.07,13.87,5.22,14.88,4.94.98,12.94-5.83,16.91-11.39,1.06-.03,1.74.34,1.74.34Z"/>
                <path class="cls-12" d="M48.55,17.14l-12.29,30.06-1.42-.49,12.41-29.43s-.59-.08-1.56.13c-.97.22-2.9,1.99-2.9,1.99,0,0,.6-2.67-1.23-3.81-1.83-1.13-3.97.66-3.97.66,0,0-.14-2.1-2.07-2.8-1.93-.71-3.3,1.29-3.3,1.29,0,0-.21-1.98-1.86-2.05s-2.17,2.03-2.17,2.03c0,0-.97-1.44-1.99-1.5-1.02-.05-1.49,1.02-1.49,1.02l-2.75,27.99-.53-.19,2.87-28.15c.12-.23.25-.42.38-.58,1.65-2.1,3.56.76,3.56.76,0,0,.31-2,2.16-1.86,1.86.13,2,1.71,2,1.71,0,0,1.56-1.81,3.47-1.07.68.26,1.15.66,1.46,1.08.61.75.72,1.53.72,1.53,0,0,1.57-1.36,3.21-.85.19.07.38.16.58.28,1.82,1.14,1.38,3.59,1.38,3.59.13-.11.24-.22.36-.32,1.22-1.03,2.35-1.33,3.23-1.36,1.06-.03,1.74.34,1.74.34Z"/>
                <path class="cls-13" d="M22.96,35.31l2.14-20.81s.36-1.1,1.41-.9,1.9,1.76,1.9,1.76c0,0,.2-2.06,1.84-2.14s1.8,2,1.8,2c0,0,1.06-1.82,3.14-1.23s2.13,2.82,2.13,2.82c0,0,2.51-1.86,3.99-.95s1.13,4.05,1.13,4.05c0,0,1.69-1.41,2.76-1.8s1.36-.35,1.36-.35l-11.93,27.84"/>
                <ellipse class="cls-14" cx="25.2" cy="16.14" rx="1.68" ry=".69" transform="translate(4.81 38.04) rotate(-79.68)"/>
                <ellipse class="cls-15" cx="25.85" cy="18.11" rx=".85" ry=".53" transform="translate(3.41 40.3) rotate(-79.68)"/>
              </g>
              <g>
                <g>
                  <g>
                    <path class="cls-35" d="M36.26,47.7c-.17,0-.32-.08-.41-.22s-.11-.31-.05-.47l12.3-30.06c.05-.13.16-.23.29-.28.06-.02.12-.03.18-.03.08,0,.15.02.22.05,1.3.65,1.76,2.04,1.91,2.9.42-.15.99-.3,1.55-.3.68,0,1.24.21,1.66.62.71.7.95,1.47,1.03,2.04.46-.17.91-.26,1.33-.26,1.96,0,2.71,1.79,2.75,1.86.06.15.05.32-.04.45l-14.52,23.46c-.09.15-.25.24-.42.24h-7.77Z"/>
                    <path class="cls-34" d="M48.56,17.14c1.67.83,1.72,3.17,1.72,3.17,0,0,.15-.08.4-.18.38-.15.97-.35,1.57-.35.47,0,.94.12,1.31.48.79.78.91,1.67.91,2.13,0,.2-.02.33-.02.33.71-.39,1.31-.54,1.82-.54,1.64,0,2.28,1.55,2.28,1.55l-14.52,23.46h-2.19s-3.17,0-3.17,0h-2.4s12.3-30.06,12.3-30.06M48.56,16.14c-.12,0-.24.02-.35.06-.26.1-.47.3-.57.56l-12.3,30.06c-.13.31-.09.66.09.94s.5.44.83.44h2.4s3.18,0,3.18,0h2.19s0,0,0,0c.35,0,.67-.18.85-.47l14.52-23.46c.17-.27.2-.61.07-.91-.33-.81-1.38-2.17-3.21-2.17-.31,0-.63.04-.95.12-.16-.55-.47-1.17-1.05-1.75-.51-.5-1.21-.77-2.01-.77-.42,0-.83.07-1.19.17-.26-.93-.83-2.1-2.05-2.71-.14-.07-.29-.1-.44-.1h0Z"/>
                  </g>
                  <path class="cls-24" d="M54.46,22.4l-12.63,24.81h-3.17s12.01-27.07,12.01-27.07c.68-.27,2.05-.68,2.88.13.79.78.91,1.67.91,2.13Z"/>
                </g>
                <path class="cls-19" d="M58.54,23.74l-14.51,23.47h-7.77s.18-.46.18-.46l11.87-29.04.24-.57c1.67.83,1.72,3.18,1.72,3.18,0,0,.16-.09.4-.19.68-.27,2.05-.68,2.88.14.79.78.91,1.66.91,2.13,0,.2-.02.32-.02.32,3.01-1.64,4.1,1.02,4.1,1.02Z"/>
                <path class="cls-17" d="M58.54,23.74l-14.51,23.47h-7.77s.18-.46.18-.46l6.78.08,14.78-23s-.16-.71-1.42-1.03c-1.26-.32-2.57.75-2.57.75,0,0,.09-2.06-1.15-2.81s-3.14.41-3.14.41c0,0-.02-1.67-.82-2.87-.16-.24-.36-.42-.59-.57l.24-.57c1.67.83,1.72,3.18,1.72,3.18,0,0,.16-.09.4-.19.68-.27,2.05-.68,2.88.14.79.78.91,1.66.91,2.13,0,.2-.02.32-.02.32,3.01-1.64,4.1,1.02,4.1,1.02Z"/>
                <path class="cls-16" d="M37.89,44.28l10.34-25.05s.99.99.67,2.87c0,0,1.71-1.48,3.32-.54s1.09,3.02,1.09,3.02c0,0,1.1-.93,2.07-1.23s2.14.35,2.14.35l-14.36,21.99"/>
              </g>
            </g>
          </g>
          <g>
            <g>
              <g>
                <path class="cls-10" d="M21.31,45.49c-.06,0-.11,0-.17-.01l-19.97-2.94c-.3-.05-.56-.2-.74-.45-.17-.24-.25-.53-.2-.82l1.74-11.78c.08-.54.56-.95,1.11-.95.05,0,.1,0,.16.01l19.98,2.95c.6.09,1.03.66.94,1.26l-1.75,11.79c-.08.54-.54.95-1.09.95Z"/>
                <path class="cls-1" d="M3.07,28.75s.08,0,.13,0l13.73,2.03,6.25.92c.49.08.83.53.76,1.03l-1.75,11.79c-.06.45-.44.77-.88.77-.05,0-.09,0-.14-.01l-19.98-2.94c-.5-.08-.84-.53-.76-1.03l.46-3.09,1.28-8.7c.07-.45.46-.77.9-.77M3.07,28.32h0c-.65,0-1.22.49-1.32,1.13l-1.28,8.7-.46,3.09c-.05.35.03.69.24.98.21.29.52.48.88.53l19.98,2.94c.07.01.13.02.2.02.65,0,1.21-.49,1.3-1.13l1.75-11.78c.1-.72-.4-1.4-1.12-1.51l-6.25-.92-13.73-2.03c-.07,0-.13-.01-.19-.01h0Z"/>
              </g>
              <path class="cls-20" d="M23.94,32.73l-1.75,11.79c-.07.49-.53.83-1.02.75l-19.98-2.94c-.5-.08-.84-.53-.76-1.03l.46-3.09c.98,0,1.98-.08,2.99-.23,5.91-.88,10.2-4.13,13.04-7.21l6.25.92c.49.08.83.53.76,1.03Z"/>
              <polyline class="cls-18" points=".93 41.49 2.53 30.72 23.02 33.73 21.65 44.48"/>
              <g class="cls-19">
                <path class="cls-22" d="M3.07,28.96h0s.06,0,.09,0l13.73,2.03,6.25.92c.37.06.64.41.59.79l-1.75,11.79c-.05.33-.33.58-.67.58-.03,0-.07,0-.11,0l-19.97-2.94c-.19-.03-.35-.13-.46-.28-.11-.15-.15-.33-.12-.51l.46-3.09,1.28-8.7c.05-.34.35-.59.69-.59M3.07,28.75c-.44,0-.83.32-.9.77l-1.28,8.7-.46,3.09c-.08.49.26.95.76,1.03l19.98,2.94s.09.01.14.01c.44,0,.82-.32.88-.77l1.75-11.79c.07-.49-.27-.95-.76-1.03l-6.25-.92-13.73-2.03s-.08,0-.13,0h0Z"/>
              </g>
              <g>
                <g>
                  <path class="cls-10" d="M2.07,30.25c-.06,0-.11-.04-.14-.08-.03-.04-.05-.1-.04-.16l.3-2.1c0-.06.04-.11.08-.14.04-.03.08-.04.13-.04.01,0,21.8,3.22,21.8,3.22.06,0,.11.04.14.08.03.04.05.1.04.16l-.31,2.1c-.02.11-.11.18-.21.18,0,0-21.79-3.22-21.79-3.22Z"/>
                  <path class="cls-1" d="M2.4,27.94l18.48,2.73,3.28.48-.31,2.1-21.76-3.21.14-.92.17-1.19M2.4,27.52c-.09,0-.18.03-.25.08-.09.07-.15.17-.17.28l-.17,1.19-.14.91c-.02.11.01.22.08.31.07.09.17.15.28.17l21.76,3.21s.04,0,.06,0c.21,0,.39-.15.42-.36l.31-2.1c.02-.11-.01-.22-.08-.32-.07-.09-.17-.15-.28-.17l-3.28-.48-18.48-2.73s-.04,0-.06,0h0Z"/>
                </g>
                <g>
                  <polygon class="cls-22" points="3.72 30.28 2.1 30.04 2.41 27.94 2.96 28.02 3.72 30.28"/>
                  <polygon class="cls-22" points="7.95 30.9 6.15 30.64 5.39 28.38 7.19 28.65 7.95 30.9"/>
                  <polygon class="cls-22" points="12.19 31.53 10.38 31.26 9.62 29.01 11.43 29.27 12.19 31.53"/>
                  <polygon class="cls-22" points="16.42 32.15 14.61 31.89 13.85 29.63 15.66 29.9 16.42 32.15"/>
                  <polygon class="cls-22" points="20.65 32.78 18.85 32.51 18.09 30.26 19.89 30.52 20.65 32.78"/>
                  <path class="cls-20" d="M24.17,31.15l-.31,2.1-21.76-3.21.14-.92c3.76.66,15.35,2.65,16.97,2.4.6-.09,1.18-.43,1.68-.86l3.28.48Z"/>
                  <polygon class="cls-22" points="24.15 31.23 23.86 33.25 23.08 33.14 22.32 30.88 24.12 31.15 24.15 31.23"/>
                </g>
              </g>
              <g>
                <g>
                  <path class="cls-10" d="M23.05,31.23c-.11,0-.21-.03-.3-.09L6.2,19.87l-1.1-.75c-.24-.19-.29-.51-.12-.75l.82-1.21c.1-.15.27-.24.45-.24.11,0,.21.03.3.09l17.64,12c.25.18.31.51.14.76l-.82,1.21c-.1.15-.27.23-.45.23Z"/>
                  <path class="cls-1" d="M6.25,17.13c.06,0,.12.02.18.06l.2.14,17.44,11.87c.15.11.19.31.08.47l-.14.21-.68,1c-.06.09-.17.14-.27.14-.06,0-.13-.02-.18-.06L6.32,19.69l-1.1-.75c-.14-.11-.17-.31-.07-.45l.6-.89.22-.32c.06-.1.17-.15.27-.15M6.25,16.71c-.25,0-.49.13-.63.34l-.22.32-.6.89c-.22.32-.16.76.15,1.02l1.13.77,16.55,11.27c.13.09.27.13.42.13.25,0,.48-.12.62-.32l.68-1.01.14-.21c.23-.35.15-.81-.19-1.05L6.86,16.97l-.21-.14c-.11-.08-.26-.13-.41-.13h0Z"/>
                </g>
                <g>
                  <path class="cls-22" d="M6.62,17.32l-.31,2.36-1.1-.74c-.14-.11-.17-.31-.07-.45l.82-1.21c.1-.15.31-.19.46-.09l.2.13Z"/>
                  <polygon class="cls-22" points="9.85 22.09 8.34 21.07 8.65 18.71 10.15 19.73 9.85 22.09"/>
                  <polygon class="cls-22" points="13.39 24.5 11.88 23.48 12.19 21.12 13.69 22.14 13.39 24.5"/>
                  <polygon class="cls-22" points="16.93 26.91 15.42 25.88 15.72 23.52 17.23 24.55 16.93 26.91"/>
                  <polygon class="cls-22" points="20.47 29.32 18.96 28.29 19.26 25.93 20.77 26.96 20.47 29.32"/>
                  <polygon class="cls-22" points="24.29 29.45 23.14 31.14 22.49 30.7 22.8 28.34 24.3 29.36 24.29 29.45"/>
                  <path class="cls-20" d="M24.01,29.87l-.68,1c-.1.14-.31.19-.46.08L6.32,19.69l-1.1-.75c-.14-.11-.17-.31-.07-.45l.6-.89,18.25,12.27Z"/>
                </g>
              </g>
              <g>
                <path class="cls-10" d="M20.73,32.97s-.08-.03-.1-.07c-.02-.04-.02-.08,0-.12l2.02-3.79s.07-.07.12-.07c0,0,1.69.3,1.69.3.07.01.12.08.11.15l-.58,3.95c0,.06-.07.11-.13.11,0,0-3.12-.46-3.12-.46Z"/>
                <path class="cls-1" d="M22.76,29.05l1.67.3-.58,3.95-3.1-.46,2.02-3.79M22.76,28.79c-.1,0-.19.05-.23.14l-2.02,3.79c-.04.08-.04.17,0,.24s.11.13.2.14l3.1.46s.03,0,.04,0c.06,0,.11-.02.16-.05.06-.04.09-.1.1-.17l.58-3.95c.02-.14-.07-.27-.21-.3l-1.67-.3s-.03,0-.05,0h0Z"/>
              </g>
            </g>
            <g>
              <line class="cls-33" x1="3.1" y1="33.74" x2="21.42" y2="36.45"/>
              <line class="cls-33" x1="2.62" y1="36.95" x2="20.95" y2="39.66"/>
              <line class="cls-33" x1="2.15" y1="40.16" x2="20.48" y2="42.86"/>
            </g>
          </g>
        </g>
      </g>
    </g>
  </g>
</svg>